%TF.GenerationSoftware,KiCad,Pcbnew,7.0.1*%
%TF.CreationDate,2023-11-08T17:30:50+01:00*%
%TF.ProjectId,keyboard,6b657962-6f61-4726-942e-6b696361645f,rev?*%
%TF.SameCoordinates,Original*%
%TF.FileFunction,Drillmap*%
%TF.FilePolarity,Positive*%
%FSLAX45Y45*%
G04 Gerber Fmt 4.5, Leading zero omitted, Abs format (unit mm)*
G04 Created by KiCad (PCBNEW 7.0.1) date 2023-11-08 17:30:50*
%MOMM*%
%LPD*%
G01*
G04 APERTURE LIST*
%ADD10C,0.100000*%
%ADD11C,0.200000*%
%ADD12C,0.080000*%
%ADD13C,0.085000*%
G04 APERTURE END LIST*
D10*
X8382000Y-3700000D02*
X16700000Y-3700000D01*
X16700000Y-13208000D01*
X8382000Y-13208000D01*
X8382000Y-3700000D01*
D11*
D12*
X9104000Y-10374000D02*
X9184000Y-10454000D01*
X9184000Y-10374000D02*
X9104000Y-10454000D01*
X9304000Y-10374000D02*
X9384000Y-10454000D01*
X9384000Y-10374000D02*
X9304000Y-10454000D01*
X9504000Y-10374000D02*
X9584000Y-10454000D01*
X9584000Y-10374000D02*
X9504000Y-10454000D01*
X9704000Y-10374000D02*
X9784000Y-10454000D01*
X9784000Y-10374000D02*
X9704000Y-10454000D01*
X9904000Y-10374000D02*
X9984000Y-10454000D01*
X9984000Y-10374000D02*
X9904000Y-10454000D01*
X10806000Y-10374000D02*
X10886000Y-10454000D01*
X10886000Y-10374000D02*
X10806000Y-10454000D01*
X11006000Y-10374000D02*
X11086000Y-10454000D01*
X11086000Y-10374000D02*
X11006000Y-10454000D01*
X11206000Y-10374000D02*
X11286000Y-10454000D01*
X11286000Y-10374000D02*
X11206000Y-10454000D01*
X11406000Y-10374000D02*
X11486000Y-10454000D01*
X11486000Y-10374000D02*
X11406000Y-10454000D01*
X11606000Y-10374000D02*
X11686000Y-10454000D01*
X11686000Y-10374000D02*
X11606000Y-10454000D01*
X11806000Y-10374000D02*
X11886000Y-10454000D01*
X11886000Y-10374000D02*
X11806000Y-10454000D01*
X12006000Y-10374000D02*
X12086000Y-10454000D01*
X12086000Y-10374000D02*
X12006000Y-10454000D01*
X12206000Y-10374000D02*
X12286000Y-10454000D01*
X12286000Y-10374000D02*
X12206000Y-10454000D01*
X12406000Y-10374000D02*
X12486000Y-10454000D01*
X12486000Y-10374000D02*
X12406000Y-10454000D01*
X12606000Y-10374000D02*
X12686000Y-10454000D01*
X12686000Y-10374000D02*
X12606000Y-10454000D01*
X12806000Y-10374000D02*
X12886000Y-10454000D01*
X12886000Y-10374000D02*
X12806000Y-10454000D01*
X13006000Y-10374000D02*
X13086000Y-10454000D01*
X13086000Y-10374000D02*
X13006000Y-10454000D01*
X13206000Y-10374000D02*
X13286000Y-10454000D01*
X13286000Y-10374000D02*
X13206000Y-10454000D01*
X13406000Y-10374000D02*
X13486000Y-10454000D01*
X13486000Y-10374000D02*
X13406000Y-10454000D01*
X13606000Y-10374000D02*
X13686000Y-10454000D01*
X13686000Y-10374000D02*
X13606000Y-10454000D01*
X13806000Y-10374000D02*
X13886000Y-10454000D01*
X13886000Y-10374000D02*
X13806000Y-10454000D01*
X14006000Y-10374000D02*
X14086000Y-10454000D01*
X14086000Y-10374000D02*
X14006000Y-10454000D01*
X15000000Y-10374000D02*
X15080000Y-10454000D01*
X15080000Y-10374000D02*
X15000000Y-10454000D01*
X15200000Y-10374000D02*
X15280000Y-10454000D01*
X15280000Y-10374000D02*
X15200000Y-10454000D01*
X15400000Y-10374000D02*
X15480000Y-10454000D01*
X15480000Y-10374000D02*
X15400000Y-10454000D01*
X15600000Y-10374000D02*
X15680000Y-10454000D01*
X15680000Y-10374000D02*
X15600000Y-10454000D01*
D13*
X9567500Y-4572000D02*
G75*
G03*
X9567500Y-4572000I-42500J0D01*
G01*
X9567500Y-4826000D02*
G75*
G03*
X9567500Y-4826000I-42500J0D01*
G01*
X9567500Y-5207000D02*
G75*
G03*
X9567500Y-5207000I-42500J0D01*
G01*
X9567500Y-5461000D02*
G75*
G03*
X9567500Y-5461000I-42500J0D01*
G01*
X9567500Y-5842000D02*
G75*
G03*
X9567500Y-5842000I-42500J0D01*
G01*
X9567500Y-6096000D02*
G75*
G03*
X9567500Y-6096000I-42500J0D01*
G01*
X9567500Y-6477000D02*
G75*
G03*
X9567500Y-6477000I-42500J0D01*
G01*
X9567500Y-6731000D02*
G75*
G03*
X9567500Y-6731000I-42500J0D01*
G01*
X9567500Y-7112000D02*
G75*
G03*
X9567500Y-7112000I-42500J0D01*
G01*
X9567500Y-7366000D02*
G75*
G03*
X9567500Y-7366000I-42500J0D01*
G01*
X9567500Y-7747000D02*
G75*
G03*
X9567500Y-7747000I-42500J0D01*
G01*
X9567500Y-8001000D02*
G75*
G03*
X9567500Y-8001000I-42500J0D01*
G01*
X9567500Y-8382000D02*
G75*
G03*
X9567500Y-8382000I-42500J0D01*
G01*
X9567500Y-8636000D02*
G75*
G03*
X9567500Y-8636000I-42500J0D01*
G01*
X9567500Y-9017000D02*
G75*
G03*
X9567500Y-9017000I-42500J0D01*
G01*
X9567500Y-9271000D02*
G75*
G03*
X9567500Y-9271000I-42500J0D01*
G01*
X10329500Y-4572000D02*
G75*
G03*
X10329500Y-4572000I-42500J0D01*
G01*
X10329500Y-4826000D02*
G75*
G03*
X10329500Y-4826000I-42500J0D01*
G01*
X10329500Y-5207000D02*
G75*
G03*
X10329500Y-5207000I-42500J0D01*
G01*
X10329500Y-5461000D02*
G75*
G03*
X10329500Y-5461000I-42500J0D01*
G01*
X10329500Y-5842000D02*
G75*
G03*
X10329500Y-5842000I-42500J0D01*
G01*
X10329500Y-6096000D02*
G75*
G03*
X10329500Y-6096000I-42500J0D01*
G01*
X10329500Y-6477000D02*
G75*
G03*
X10329500Y-6477000I-42500J0D01*
G01*
X10329500Y-6731000D02*
G75*
G03*
X10329500Y-6731000I-42500J0D01*
G01*
X10329500Y-7112000D02*
G75*
G03*
X10329500Y-7112000I-42500J0D01*
G01*
X10329500Y-7366000D02*
G75*
G03*
X10329500Y-7366000I-42500J0D01*
G01*
X10329500Y-7747000D02*
G75*
G03*
X10329500Y-7747000I-42500J0D01*
G01*
X10329500Y-8001000D02*
G75*
G03*
X10329500Y-8001000I-42500J0D01*
G01*
X10329500Y-8382000D02*
G75*
G03*
X10329500Y-8382000I-42500J0D01*
G01*
X10329500Y-8636000D02*
G75*
G03*
X10329500Y-8636000I-42500J0D01*
G01*
X10329500Y-9017000D02*
G75*
G03*
X10329500Y-9017000I-42500J0D01*
G01*
X10329500Y-9271000D02*
G75*
G03*
X10329500Y-9271000I-42500J0D01*
G01*
X11345500Y-4572000D02*
G75*
G03*
X11345500Y-4572000I-42500J0D01*
G01*
X11345500Y-4826000D02*
G75*
G03*
X11345500Y-4826000I-42500J0D01*
G01*
X11345500Y-5207000D02*
G75*
G03*
X11345500Y-5207000I-42500J0D01*
G01*
X11345500Y-5461000D02*
G75*
G03*
X11345500Y-5461000I-42500J0D01*
G01*
X11345500Y-5842000D02*
G75*
G03*
X11345500Y-5842000I-42500J0D01*
G01*
X11345500Y-6096000D02*
G75*
G03*
X11345500Y-6096000I-42500J0D01*
G01*
X11345500Y-6477000D02*
G75*
G03*
X11345500Y-6477000I-42500J0D01*
G01*
X11345500Y-6731000D02*
G75*
G03*
X11345500Y-6731000I-42500J0D01*
G01*
X11345500Y-7112000D02*
G75*
G03*
X11345500Y-7112000I-42500J0D01*
G01*
X11345500Y-7366000D02*
G75*
G03*
X11345500Y-7366000I-42500J0D01*
G01*
X11345500Y-7747000D02*
G75*
G03*
X11345500Y-7747000I-42500J0D01*
G01*
X11345500Y-8001000D02*
G75*
G03*
X11345500Y-8001000I-42500J0D01*
G01*
X11345500Y-8382000D02*
G75*
G03*
X11345500Y-8382000I-42500J0D01*
G01*
X11345500Y-8636000D02*
G75*
G03*
X11345500Y-8636000I-42500J0D01*
G01*
X11345500Y-9017000D02*
G75*
G03*
X11345500Y-9017000I-42500J0D01*
G01*
X11345500Y-9271000D02*
G75*
G03*
X11345500Y-9271000I-42500J0D01*
G01*
X12107500Y-4572000D02*
G75*
G03*
X12107500Y-4572000I-42500J0D01*
G01*
X12107500Y-4826000D02*
G75*
G03*
X12107500Y-4826000I-42500J0D01*
G01*
X12107500Y-5207000D02*
G75*
G03*
X12107500Y-5207000I-42500J0D01*
G01*
X12107500Y-5461000D02*
G75*
G03*
X12107500Y-5461000I-42500J0D01*
G01*
X12107500Y-5842000D02*
G75*
G03*
X12107500Y-5842000I-42500J0D01*
G01*
X12107500Y-6096000D02*
G75*
G03*
X12107500Y-6096000I-42500J0D01*
G01*
X12107500Y-6477000D02*
G75*
G03*
X12107500Y-6477000I-42500J0D01*
G01*
X12107500Y-6731000D02*
G75*
G03*
X12107500Y-6731000I-42500J0D01*
G01*
X12107500Y-7112000D02*
G75*
G03*
X12107500Y-7112000I-42500J0D01*
G01*
X12107500Y-7366000D02*
G75*
G03*
X12107500Y-7366000I-42500J0D01*
G01*
X12107500Y-7747000D02*
G75*
G03*
X12107500Y-7747000I-42500J0D01*
G01*
X12107500Y-8001000D02*
G75*
G03*
X12107500Y-8001000I-42500J0D01*
G01*
X12107500Y-8382000D02*
G75*
G03*
X12107500Y-8382000I-42500J0D01*
G01*
X12107500Y-8636000D02*
G75*
G03*
X12107500Y-8636000I-42500J0D01*
G01*
X12107500Y-9017000D02*
G75*
G03*
X12107500Y-9017000I-42500J0D01*
G01*
X12107500Y-9271000D02*
G75*
G03*
X12107500Y-9271000I-42500J0D01*
G01*
X13123500Y-4572000D02*
G75*
G03*
X13123500Y-4572000I-42500J0D01*
G01*
X13123500Y-4826000D02*
G75*
G03*
X13123500Y-4826000I-42500J0D01*
G01*
X13123500Y-5207000D02*
G75*
G03*
X13123500Y-5207000I-42500J0D01*
G01*
X13123500Y-5461000D02*
G75*
G03*
X13123500Y-5461000I-42500J0D01*
G01*
X13123500Y-5842000D02*
G75*
G03*
X13123500Y-5842000I-42500J0D01*
G01*
X13123500Y-6096000D02*
G75*
G03*
X13123500Y-6096000I-42500J0D01*
G01*
X13123500Y-6477000D02*
G75*
G03*
X13123500Y-6477000I-42500J0D01*
G01*
X13123500Y-6731000D02*
G75*
G03*
X13123500Y-6731000I-42500J0D01*
G01*
X13123500Y-7112000D02*
G75*
G03*
X13123500Y-7112000I-42500J0D01*
G01*
X13123500Y-7366000D02*
G75*
G03*
X13123500Y-7366000I-42500J0D01*
G01*
X13123500Y-7747000D02*
G75*
G03*
X13123500Y-7747000I-42500J0D01*
G01*
X13123500Y-8001000D02*
G75*
G03*
X13123500Y-8001000I-42500J0D01*
G01*
X13123500Y-8382000D02*
G75*
G03*
X13123500Y-8382000I-42500J0D01*
G01*
X13123500Y-8636000D02*
G75*
G03*
X13123500Y-8636000I-42500J0D01*
G01*
X13123500Y-9017000D02*
G75*
G03*
X13123500Y-9017000I-42500J0D01*
G01*
X13123500Y-9271000D02*
G75*
G03*
X13123500Y-9271000I-42500J0D01*
G01*
X13885500Y-4572000D02*
G75*
G03*
X13885500Y-4572000I-42500J0D01*
G01*
X13885500Y-4826000D02*
G75*
G03*
X13885500Y-4826000I-42500J0D01*
G01*
X13885500Y-5207000D02*
G75*
G03*
X13885500Y-5207000I-42500J0D01*
G01*
X13885500Y-5461000D02*
G75*
G03*
X13885500Y-5461000I-42500J0D01*
G01*
X13885500Y-5842000D02*
G75*
G03*
X13885500Y-5842000I-42500J0D01*
G01*
X13885500Y-6096000D02*
G75*
G03*
X13885500Y-6096000I-42500J0D01*
G01*
X13885500Y-6477000D02*
G75*
G03*
X13885500Y-6477000I-42500J0D01*
G01*
X13885500Y-6731000D02*
G75*
G03*
X13885500Y-6731000I-42500J0D01*
G01*
X13885500Y-7112000D02*
G75*
G03*
X13885500Y-7112000I-42500J0D01*
G01*
X13885500Y-7366000D02*
G75*
G03*
X13885500Y-7366000I-42500J0D01*
G01*
X13885500Y-7747000D02*
G75*
G03*
X13885500Y-7747000I-42500J0D01*
G01*
X13885500Y-8001000D02*
G75*
G03*
X13885500Y-8001000I-42500J0D01*
G01*
X13885500Y-8382000D02*
G75*
G03*
X13885500Y-8382000I-42500J0D01*
G01*
X13885500Y-8636000D02*
G75*
G03*
X13885500Y-8636000I-42500J0D01*
G01*
X13885500Y-9017000D02*
G75*
G03*
X13885500Y-9017000I-42500J0D01*
G01*
X13885500Y-9271000D02*
G75*
G03*
X13885500Y-9271000I-42500J0D01*
G01*
X15155500Y-4572000D02*
G75*
G03*
X15155500Y-4572000I-42500J0D01*
G01*
X15155500Y-4826000D02*
G75*
G03*
X15155500Y-4826000I-42500J0D01*
G01*
X15155500Y-5207000D02*
G75*
G03*
X15155500Y-5207000I-42500J0D01*
G01*
X15155500Y-5461000D02*
G75*
G03*
X15155500Y-5461000I-42500J0D01*
G01*
X15155500Y-5842000D02*
G75*
G03*
X15155500Y-5842000I-42500J0D01*
G01*
X15155500Y-6096000D02*
G75*
G03*
X15155500Y-6096000I-42500J0D01*
G01*
X15155500Y-6477000D02*
G75*
G03*
X15155500Y-6477000I-42500J0D01*
G01*
X15155500Y-6731000D02*
G75*
G03*
X15155500Y-6731000I-42500J0D01*
G01*
X15155500Y-7112000D02*
G75*
G03*
X15155500Y-7112000I-42500J0D01*
G01*
X15155500Y-7366000D02*
G75*
G03*
X15155500Y-7366000I-42500J0D01*
G01*
X15155500Y-7747000D02*
G75*
G03*
X15155500Y-7747000I-42500J0D01*
G01*
X15155500Y-8001000D02*
G75*
G03*
X15155500Y-8001000I-42500J0D01*
G01*
X15155500Y-8382000D02*
G75*
G03*
X15155500Y-8382000I-42500J0D01*
G01*
X15155500Y-8636000D02*
G75*
G03*
X15155500Y-8636000I-42500J0D01*
G01*
X15155500Y-9017000D02*
G75*
G03*
X15155500Y-9017000I-42500J0D01*
G01*
X15155500Y-9271000D02*
G75*
G03*
X15155500Y-9271000I-42500J0D01*
G01*
X15917500Y-4572000D02*
G75*
G03*
X15917500Y-4572000I-42500J0D01*
G01*
X15917500Y-4826000D02*
G75*
G03*
X15917500Y-4826000I-42500J0D01*
G01*
X15917500Y-5207000D02*
G75*
G03*
X15917500Y-5207000I-42500J0D01*
G01*
X15917500Y-5461000D02*
G75*
G03*
X15917500Y-5461000I-42500J0D01*
G01*
X15917500Y-5842000D02*
G75*
G03*
X15917500Y-5842000I-42500J0D01*
G01*
X15917500Y-6096000D02*
G75*
G03*
X15917500Y-6096000I-42500J0D01*
G01*
X15917500Y-6477000D02*
G75*
G03*
X15917500Y-6477000I-42500J0D01*
G01*
X15917500Y-6731000D02*
G75*
G03*
X15917500Y-6731000I-42500J0D01*
G01*
X15917500Y-7112000D02*
G75*
G03*
X15917500Y-7112000I-42500J0D01*
G01*
X15917500Y-7366000D02*
G75*
G03*
X15917500Y-7366000I-42500J0D01*
G01*
X15917500Y-7747000D02*
G75*
G03*
X15917500Y-7747000I-42500J0D01*
G01*
X15917500Y-8001000D02*
G75*
G03*
X15917500Y-8001000I-42500J0D01*
G01*
X15917500Y-8382000D02*
G75*
G03*
X15917500Y-8382000I-42500J0D01*
G01*
X15917500Y-8636000D02*
G75*
G03*
X15917500Y-8636000I-42500J0D01*
G01*
X15917500Y-9017000D02*
G75*
G03*
X15917500Y-9017000I-42500J0D01*
G01*
X15917500Y-9271000D02*
G75*
G03*
X15917500Y-9271000I-42500J0D01*
G01*
D10*
X8636000Y-4268000D02*
X8636000Y-4368000D01*
X8586000Y-4318000D02*
X8686000Y-4318000D01*
X8636000Y-4522000D02*
X8636000Y-4622000D01*
X8586000Y-4572000D02*
X8686000Y-4572000D01*
X8636000Y-4776000D02*
X8636000Y-4876000D01*
X8586000Y-4826000D02*
X8686000Y-4826000D01*
X8636000Y-5030000D02*
X8636000Y-5130000D01*
X8586000Y-5080000D02*
X8686000Y-5080000D01*
X8636000Y-5284000D02*
X8636000Y-5384000D01*
X8586000Y-5334000D02*
X8686000Y-5334000D01*
X8636000Y-5538000D02*
X8636000Y-5638000D01*
X8586000Y-5588000D02*
X8686000Y-5588000D01*
X8636000Y-5792000D02*
X8636000Y-5892000D01*
X8586000Y-5842000D02*
X8686000Y-5842000D01*
X8636000Y-6046000D02*
X8636000Y-6146000D01*
X8586000Y-6096000D02*
X8686000Y-6096000D01*
X9144000Y-4014000D02*
X9144000Y-4114000D01*
X9094000Y-4064000D02*
X9194000Y-4064000D01*
X9144000Y-9856000D02*
X9144000Y-9956000D01*
X9094000Y-9906000D02*
X9194000Y-9906000D01*
X9398000Y-4014000D02*
X9398000Y-4114000D01*
X9348000Y-4064000D02*
X9448000Y-4064000D01*
X9398000Y-9856000D02*
X9398000Y-9956000D01*
X9348000Y-9906000D02*
X9448000Y-9906000D01*
X9652000Y-4014000D02*
X9652000Y-4114000D01*
X9602000Y-4064000D02*
X9702000Y-4064000D01*
X9652000Y-9856000D02*
X9652000Y-9956000D01*
X9602000Y-9906000D02*
X9702000Y-9906000D01*
X9906000Y-4014000D02*
X9906000Y-4114000D01*
X9856000Y-4064000D02*
X9956000Y-4064000D01*
X9906000Y-9856000D02*
X9906000Y-9956000D01*
X9856000Y-9906000D02*
X9956000Y-9906000D01*
X10160000Y-4014000D02*
X10160000Y-4114000D01*
X10110000Y-4064000D02*
X10210000Y-4064000D01*
X10160000Y-9856000D02*
X10160000Y-9956000D01*
X10110000Y-9906000D02*
X10210000Y-9906000D01*
X10414000Y-9856000D02*
X10414000Y-9956000D01*
X10364000Y-9906000D02*
X10464000Y-9906000D01*
X10668000Y-9856000D02*
X10668000Y-9956000D01*
X10618000Y-9906000D02*
X10718000Y-9906000D01*
X10922000Y-4268000D02*
X10922000Y-4368000D01*
X10872000Y-4318000D02*
X10972000Y-4318000D01*
X10922000Y-4522000D02*
X10922000Y-4622000D01*
X10872000Y-4572000D02*
X10972000Y-4572000D01*
X10922000Y-4776000D02*
X10922000Y-4876000D01*
X10872000Y-4826000D02*
X10972000Y-4826000D01*
X10922000Y-5030000D02*
X10922000Y-5130000D01*
X10872000Y-5080000D02*
X10972000Y-5080000D01*
X10922000Y-5284000D02*
X10922000Y-5384000D01*
X10872000Y-5334000D02*
X10972000Y-5334000D01*
X10922000Y-5538000D02*
X10922000Y-5638000D01*
X10872000Y-5588000D02*
X10972000Y-5588000D01*
X10922000Y-5792000D02*
X10922000Y-5892000D01*
X10872000Y-5842000D02*
X10972000Y-5842000D01*
X10922000Y-6046000D02*
X10922000Y-6146000D01*
X10872000Y-6096000D02*
X10972000Y-6096000D01*
X10922000Y-9856000D02*
X10922000Y-9956000D01*
X10872000Y-9906000D02*
X10972000Y-9906000D01*
X11176000Y-9856000D02*
X11176000Y-9956000D01*
X11126000Y-9906000D02*
X11226000Y-9906000D01*
X11430000Y-9856000D02*
X11430000Y-9956000D01*
X11380000Y-9906000D02*
X11480000Y-9906000D01*
X11684000Y-9856000D02*
X11684000Y-9956000D01*
X11634000Y-9906000D02*
X11734000Y-9906000D01*
X11938000Y-9856000D02*
X11938000Y-9956000D01*
X11888000Y-9906000D02*
X11988000Y-9906000D01*
X12192000Y-9856000D02*
X12192000Y-9956000D01*
X12142000Y-9906000D02*
X12242000Y-9906000D01*
X12446000Y-4268000D02*
X12446000Y-4368000D01*
X12396000Y-4318000D02*
X12496000Y-4318000D01*
X12446000Y-4522000D02*
X12446000Y-4622000D01*
X12396000Y-4572000D02*
X12496000Y-4572000D01*
X12446000Y-4776000D02*
X12446000Y-4876000D01*
X12396000Y-4826000D02*
X12496000Y-4826000D01*
X12446000Y-5030000D02*
X12446000Y-5130000D01*
X12396000Y-5080000D02*
X12496000Y-5080000D01*
X12446000Y-5284000D02*
X12446000Y-5384000D01*
X12396000Y-5334000D02*
X12496000Y-5334000D01*
X12446000Y-5538000D02*
X12446000Y-5638000D01*
X12396000Y-5588000D02*
X12496000Y-5588000D01*
X12446000Y-5792000D02*
X12446000Y-5892000D01*
X12396000Y-5842000D02*
X12496000Y-5842000D01*
X12446000Y-6046000D02*
X12446000Y-6146000D01*
X12396000Y-6096000D02*
X12496000Y-6096000D01*
X12446000Y-9856000D02*
X12446000Y-9956000D01*
X12396000Y-9906000D02*
X12496000Y-9906000D01*
X12700000Y-9856000D02*
X12700000Y-9956000D01*
X12650000Y-9906000D02*
X12750000Y-9906000D01*
X12954000Y-4014000D02*
X12954000Y-4114000D01*
X12904000Y-4064000D02*
X13004000Y-4064000D01*
X12954000Y-9856000D02*
X12954000Y-9956000D01*
X12904000Y-9906000D02*
X13004000Y-9906000D01*
X13208000Y-4014000D02*
X13208000Y-4114000D01*
X13158000Y-4064000D02*
X13258000Y-4064000D01*
X13208000Y-9856000D02*
X13208000Y-9956000D01*
X13158000Y-9906000D02*
X13258000Y-9906000D01*
X13462000Y-4014000D02*
X13462000Y-4114000D01*
X13412000Y-4064000D02*
X13512000Y-4064000D01*
X13462000Y-9856000D02*
X13462000Y-9956000D01*
X13412000Y-9906000D02*
X13512000Y-9906000D01*
X13716000Y-4014000D02*
X13716000Y-4114000D01*
X13666000Y-4064000D02*
X13766000Y-4064000D01*
X13716000Y-9856000D02*
X13716000Y-9956000D01*
X13666000Y-9906000D02*
X13766000Y-9906000D01*
X13970000Y-4014000D02*
X13970000Y-4114000D01*
X13920000Y-4064000D02*
X14020000Y-4064000D01*
X13970000Y-9856000D02*
X13970000Y-9956000D01*
X13920000Y-9906000D02*
X14020000Y-9906000D01*
X14224000Y-9856000D02*
X14224000Y-9956000D01*
X14174000Y-9906000D02*
X14274000Y-9906000D01*
X14478000Y-9856000D02*
X14478000Y-9956000D01*
X14428000Y-9906000D02*
X14528000Y-9906000D01*
X14732000Y-4268000D02*
X14732000Y-4368000D01*
X14682000Y-4318000D02*
X14782000Y-4318000D01*
X14732000Y-4522000D02*
X14732000Y-4622000D01*
X14682000Y-4572000D02*
X14782000Y-4572000D01*
X14732000Y-4776000D02*
X14732000Y-4876000D01*
X14682000Y-4826000D02*
X14782000Y-4826000D01*
X14732000Y-5030000D02*
X14732000Y-5130000D01*
X14682000Y-5080000D02*
X14782000Y-5080000D01*
X14732000Y-5284000D02*
X14732000Y-5384000D01*
X14682000Y-5334000D02*
X14782000Y-5334000D01*
X14732000Y-5538000D02*
X14732000Y-5638000D01*
X14682000Y-5588000D02*
X14782000Y-5588000D01*
X14732000Y-5792000D02*
X14732000Y-5892000D01*
X14682000Y-5842000D02*
X14782000Y-5842000D01*
X14732000Y-6046000D02*
X14732000Y-6146000D01*
X14682000Y-6096000D02*
X14782000Y-6096000D01*
X14732000Y-9856000D02*
X14732000Y-9956000D01*
X14682000Y-9906000D02*
X14782000Y-9906000D01*
X14986000Y-9856000D02*
X14986000Y-9956000D01*
X14936000Y-9906000D02*
X15036000Y-9906000D01*
X15240000Y-9856000D02*
X15240000Y-9956000D01*
X15190000Y-9906000D02*
X15290000Y-9906000D01*
X15494000Y-9856000D02*
X15494000Y-9956000D01*
X15444000Y-9906000D02*
X15544000Y-9906000D01*
X16256000Y-4268000D02*
X16256000Y-4368000D01*
X16206000Y-4318000D02*
X16306000Y-4318000D01*
X16256000Y-4522000D02*
X16256000Y-4622000D01*
X16206000Y-4572000D02*
X16306000Y-4572000D01*
X16256000Y-4776000D02*
X16256000Y-4876000D01*
X16206000Y-4826000D02*
X16306000Y-4826000D01*
X16256000Y-5030000D02*
X16256000Y-5130000D01*
X16206000Y-5080000D02*
X16306000Y-5080000D01*
X16256000Y-5284000D02*
X16256000Y-5384000D01*
X16206000Y-5334000D02*
X16306000Y-5334000D01*
X16256000Y-5538000D02*
X16256000Y-5638000D01*
X16206000Y-5588000D02*
X16306000Y-5588000D01*
X16256000Y-6046000D02*
X16256000Y-6146000D01*
X16206000Y-6096000D02*
X16306000Y-6096000D01*
X16256000Y-6300000D02*
X16256000Y-6400000D01*
X16206000Y-6350000D02*
X16306000Y-6350000D01*
X16256000Y-6554000D02*
X16256000Y-6654000D01*
X16206000Y-6604000D02*
X16306000Y-6604000D01*
X16256000Y-6808000D02*
X16256000Y-6908000D01*
X16206000Y-6858000D02*
X16306000Y-6858000D01*
X16256000Y-7062000D02*
X16256000Y-7162000D01*
X16206000Y-7112000D02*
X16306000Y-7112000D01*
X16256000Y-7316000D02*
X16256000Y-7416000D01*
X16206000Y-7366000D02*
X16306000Y-7366000D01*
X16256000Y-7570000D02*
X16256000Y-7670000D01*
X16206000Y-7620000D02*
X16306000Y-7620000D01*
X16256000Y-7824000D02*
X16256000Y-7924000D01*
X16206000Y-7874000D02*
X16306000Y-7874000D01*
X16256000Y-8078000D02*
X16256000Y-8178000D01*
X16206000Y-8128000D02*
X16306000Y-8128000D01*
X16256000Y-8332000D02*
X16256000Y-8432000D01*
X16206000Y-8382000D02*
X16306000Y-8382000D01*
X16256000Y-8586000D02*
X16256000Y-8686000D01*
X16206000Y-8636000D02*
X16306000Y-8636000D01*
X16256000Y-8840000D02*
X16256000Y-8940000D01*
X16206000Y-8890000D02*
X16306000Y-8890000D01*
D11*
X8624619Y-13525524D02*
X8624619Y-13325524D01*
X8624619Y-13325524D02*
X8672238Y-13325524D01*
X8672238Y-13325524D02*
X8700810Y-13335048D01*
X8700810Y-13335048D02*
X8719857Y-13354095D01*
X8719857Y-13354095D02*
X8729381Y-13373143D01*
X8729381Y-13373143D02*
X8738905Y-13411238D01*
X8738905Y-13411238D02*
X8738905Y-13439809D01*
X8738905Y-13439809D02*
X8729381Y-13477905D01*
X8729381Y-13477905D02*
X8719857Y-13496952D01*
X8719857Y-13496952D02*
X8700810Y-13516000D01*
X8700810Y-13516000D02*
X8672238Y-13525524D01*
X8672238Y-13525524D02*
X8624619Y-13525524D01*
X8824619Y-13525524D02*
X8824619Y-13392190D01*
X8824619Y-13430286D02*
X8834143Y-13411238D01*
X8834143Y-13411238D02*
X8843667Y-13401714D01*
X8843667Y-13401714D02*
X8862714Y-13392190D01*
X8862714Y-13392190D02*
X8881762Y-13392190D01*
X8948429Y-13525524D02*
X8948429Y-13392190D01*
X8948429Y-13325524D02*
X8938905Y-13335048D01*
X8938905Y-13335048D02*
X8948429Y-13344571D01*
X8948429Y-13344571D02*
X8957952Y-13335048D01*
X8957952Y-13335048D02*
X8948429Y-13325524D01*
X8948429Y-13325524D02*
X8948429Y-13344571D01*
X9072238Y-13525524D02*
X9053190Y-13516000D01*
X9053190Y-13516000D02*
X9043667Y-13496952D01*
X9043667Y-13496952D02*
X9043667Y-13325524D01*
X9177000Y-13525524D02*
X9157952Y-13516000D01*
X9157952Y-13516000D02*
X9148429Y-13496952D01*
X9148429Y-13496952D02*
X9148429Y-13325524D01*
X9405571Y-13525524D02*
X9405571Y-13325524D01*
X9405571Y-13325524D02*
X9472238Y-13468381D01*
X9472238Y-13468381D02*
X9538905Y-13325524D01*
X9538905Y-13325524D02*
X9538905Y-13525524D01*
X9719857Y-13525524D02*
X9719857Y-13420762D01*
X9719857Y-13420762D02*
X9710333Y-13401714D01*
X9710333Y-13401714D02*
X9691286Y-13392190D01*
X9691286Y-13392190D02*
X9653190Y-13392190D01*
X9653190Y-13392190D02*
X9634143Y-13401714D01*
X9719857Y-13516000D02*
X9700810Y-13525524D01*
X9700810Y-13525524D02*
X9653190Y-13525524D01*
X9653190Y-13525524D02*
X9634143Y-13516000D01*
X9634143Y-13516000D02*
X9624619Y-13496952D01*
X9624619Y-13496952D02*
X9624619Y-13477905D01*
X9624619Y-13477905D02*
X9634143Y-13458857D01*
X9634143Y-13458857D02*
X9653190Y-13449333D01*
X9653190Y-13449333D02*
X9700810Y-13449333D01*
X9700810Y-13449333D02*
X9719857Y-13439809D01*
X9815095Y-13392190D02*
X9815095Y-13592190D01*
X9815095Y-13401714D02*
X9834143Y-13392190D01*
X9834143Y-13392190D02*
X9872238Y-13392190D01*
X9872238Y-13392190D02*
X9891286Y-13401714D01*
X9891286Y-13401714D02*
X9900810Y-13411238D01*
X9900810Y-13411238D02*
X9910333Y-13430286D01*
X9910333Y-13430286D02*
X9910333Y-13487428D01*
X9910333Y-13487428D02*
X9900810Y-13506476D01*
X9900810Y-13506476D02*
X9891286Y-13516000D01*
X9891286Y-13516000D02*
X9872238Y-13525524D01*
X9872238Y-13525524D02*
X9834143Y-13525524D01*
X9834143Y-13525524D02*
X9815095Y-13516000D01*
X9996048Y-13506476D02*
X10005571Y-13516000D01*
X10005571Y-13516000D02*
X9996048Y-13525524D01*
X9996048Y-13525524D02*
X9986524Y-13516000D01*
X9986524Y-13516000D02*
X9996048Y-13506476D01*
X9996048Y-13506476D02*
X9996048Y-13525524D01*
X9996048Y-13401714D02*
X10005571Y-13411238D01*
X10005571Y-13411238D02*
X9996048Y-13420762D01*
X9996048Y-13420762D02*
X9986524Y-13411238D01*
X9986524Y-13411238D02*
X9996048Y-13401714D01*
X9996048Y-13401714D02*
X9996048Y-13420762D01*
D12*
X8297000Y-13813000D02*
X8377000Y-13893000D01*
X8377000Y-13813000D02*
X8297000Y-13893000D01*
D11*
X8662714Y-13745524D02*
X8681762Y-13745524D01*
X8681762Y-13745524D02*
X8700810Y-13755048D01*
X8700810Y-13755048D02*
X8710333Y-13764571D01*
X8710333Y-13764571D02*
X8719857Y-13783619D01*
X8719857Y-13783619D02*
X8729381Y-13821714D01*
X8729381Y-13821714D02*
X8729381Y-13869333D01*
X8729381Y-13869333D02*
X8719857Y-13907428D01*
X8719857Y-13907428D02*
X8710333Y-13926476D01*
X8710333Y-13926476D02*
X8700810Y-13936000D01*
X8700810Y-13936000D02*
X8681762Y-13945524D01*
X8681762Y-13945524D02*
X8662714Y-13945524D01*
X8662714Y-13945524D02*
X8643667Y-13936000D01*
X8643667Y-13936000D02*
X8634143Y-13926476D01*
X8634143Y-13926476D02*
X8624619Y-13907428D01*
X8624619Y-13907428D02*
X8615095Y-13869333D01*
X8615095Y-13869333D02*
X8615095Y-13821714D01*
X8615095Y-13821714D02*
X8624619Y-13783619D01*
X8624619Y-13783619D02*
X8634143Y-13764571D01*
X8634143Y-13764571D02*
X8643667Y-13755048D01*
X8643667Y-13755048D02*
X8662714Y-13745524D01*
X8815095Y-13926476D02*
X8824619Y-13936000D01*
X8824619Y-13936000D02*
X8815095Y-13945524D01*
X8815095Y-13945524D02*
X8805571Y-13936000D01*
X8805571Y-13936000D02*
X8815095Y-13926476D01*
X8815095Y-13926476D02*
X8815095Y-13945524D01*
X8938905Y-13831238D02*
X8919857Y-13821714D01*
X8919857Y-13821714D02*
X8910333Y-13812190D01*
X8910333Y-13812190D02*
X8900810Y-13793143D01*
X8900810Y-13793143D02*
X8900810Y-13783619D01*
X8900810Y-13783619D02*
X8910333Y-13764571D01*
X8910333Y-13764571D02*
X8919857Y-13755048D01*
X8919857Y-13755048D02*
X8938905Y-13745524D01*
X8938905Y-13745524D02*
X8977000Y-13745524D01*
X8977000Y-13745524D02*
X8996048Y-13755048D01*
X8996048Y-13755048D02*
X9005571Y-13764571D01*
X9005571Y-13764571D02*
X9015095Y-13783619D01*
X9015095Y-13783619D02*
X9015095Y-13793143D01*
X9015095Y-13793143D02*
X9005571Y-13812190D01*
X9005571Y-13812190D02*
X8996048Y-13821714D01*
X8996048Y-13821714D02*
X8977000Y-13831238D01*
X8977000Y-13831238D02*
X8938905Y-13831238D01*
X8938905Y-13831238D02*
X8919857Y-13840762D01*
X8919857Y-13840762D02*
X8910333Y-13850286D01*
X8910333Y-13850286D02*
X8900810Y-13869333D01*
X8900810Y-13869333D02*
X8900810Y-13907428D01*
X8900810Y-13907428D02*
X8910333Y-13926476D01*
X8910333Y-13926476D02*
X8919857Y-13936000D01*
X8919857Y-13936000D02*
X8938905Y-13945524D01*
X8938905Y-13945524D02*
X8977000Y-13945524D01*
X8977000Y-13945524D02*
X8996048Y-13936000D01*
X8996048Y-13936000D02*
X9005571Y-13926476D01*
X9005571Y-13926476D02*
X9015095Y-13907428D01*
X9015095Y-13907428D02*
X9015095Y-13869333D01*
X9015095Y-13869333D02*
X9005571Y-13850286D01*
X9005571Y-13850286D02*
X8996048Y-13840762D01*
X8996048Y-13840762D02*
X8977000Y-13831238D01*
X9138905Y-13745524D02*
X9157952Y-13745524D01*
X9157952Y-13745524D02*
X9177000Y-13755048D01*
X9177000Y-13755048D02*
X9186524Y-13764571D01*
X9186524Y-13764571D02*
X9196048Y-13783619D01*
X9196048Y-13783619D02*
X9205571Y-13821714D01*
X9205571Y-13821714D02*
X9205571Y-13869333D01*
X9205571Y-13869333D02*
X9196048Y-13907428D01*
X9196048Y-13907428D02*
X9186524Y-13926476D01*
X9186524Y-13926476D02*
X9177000Y-13936000D01*
X9177000Y-13936000D02*
X9157952Y-13945524D01*
X9157952Y-13945524D02*
X9138905Y-13945524D01*
X9138905Y-13945524D02*
X9119857Y-13936000D01*
X9119857Y-13936000D02*
X9110333Y-13926476D01*
X9110333Y-13926476D02*
X9100810Y-13907428D01*
X9100810Y-13907428D02*
X9091286Y-13869333D01*
X9091286Y-13869333D02*
X9091286Y-13821714D01*
X9091286Y-13821714D02*
X9100810Y-13783619D01*
X9100810Y-13783619D02*
X9110333Y-13764571D01*
X9110333Y-13764571D02*
X9119857Y-13755048D01*
X9119857Y-13755048D02*
X9138905Y-13745524D01*
X9329381Y-13745524D02*
X9348429Y-13745524D01*
X9348429Y-13745524D02*
X9367476Y-13755048D01*
X9367476Y-13755048D02*
X9377000Y-13764571D01*
X9377000Y-13764571D02*
X9386524Y-13783619D01*
X9386524Y-13783619D02*
X9396048Y-13821714D01*
X9396048Y-13821714D02*
X9396048Y-13869333D01*
X9396048Y-13869333D02*
X9386524Y-13907428D01*
X9386524Y-13907428D02*
X9377000Y-13926476D01*
X9377000Y-13926476D02*
X9367476Y-13936000D01*
X9367476Y-13936000D02*
X9348429Y-13945524D01*
X9348429Y-13945524D02*
X9329381Y-13945524D01*
X9329381Y-13945524D02*
X9310333Y-13936000D01*
X9310333Y-13936000D02*
X9300810Y-13926476D01*
X9300810Y-13926476D02*
X9291286Y-13907428D01*
X9291286Y-13907428D02*
X9281762Y-13869333D01*
X9281762Y-13869333D02*
X9281762Y-13821714D01*
X9281762Y-13821714D02*
X9291286Y-13783619D01*
X9291286Y-13783619D02*
X9300810Y-13764571D01*
X9300810Y-13764571D02*
X9310333Y-13755048D01*
X9310333Y-13755048D02*
X9329381Y-13745524D01*
X9481762Y-13945524D02*
X9481762Y-13812190D01*
X9481762Y-13831238D02*
X9491286Y-13821714D01*
X9491286Y-13821714D02*
X9510333Y-13812190D01*
X9510333Y-13812190D02*
X9538905Y-13812190D01*
X9538905Y-13812190D02*
X9557952Y-13821714D01*
X9557952Y-13821714D02*
X9567476Y-13840762D01*
X9567476Y-13840762D02*
X9567476Y-13945524D01*
X9567476Y-13840762D02*
X9577000Y-13821714D01*
X9577000Y-13821714D02*
X9596048Y-13812190D01*
X9596048Y-13812190D02*
X9624619Y-13812190D01*
X9624619Y-13812190D02*
X9643667Y-13821714D01*
X9643667Y-13821714D02*
X9653191Y-13840762D01*
X9653191Y-13840762D02*
X9653191Y-13945524D01*
X9748429Y-13945524D02*
X9748429Y-13812190D01*
X9748429Y-13831238D02*
X9757952Y-13821714D01*
X9757952Y-13821714D02*
X9777000Y-13812190D01*
X9777000Y-13812190D02*
X9805572Y-13812190D01*
X9805572Y-13812190D02*
X9824619Y-13821714D01*
X9824619Y-13821714D02*
X9834143Y-13840762D01*
X9834143Y-13840762D02*
X9834143Y-13945524D01*
X9834143Y-13840762D02*
X9843667Y-13821714D01*
X9843667Y-13821714D02*
X9862714Y-13812190D01*
X9862714Y-13812190D02*
X9891286Y-13812190D01*
X9891286Y-13812190D02*
X9910333Y-13821714D01*
X9910333Y-13821714D02*
X9919857Y-13840762D01*
X9919857Y-13840762D02*
X9919857Y-13945524D01*
X10310333Y-13736000D02*
X10138905Y-13993143D01*
X10567476Y-13745524D02*
X10586524Y-13745524D01*
X10586524Y-13745524D02*
X10605572Y-13755048D01*
X10605572Y-13755048D02*
X10615095Y-13764571D01*
X10615095Y-13764571D02*
X10624619Y-13783619D01*
X10624619Y-13783619D02*
X10634143Y-13821714D01*
X10634143Y-13821714D02*
X10634143Y-13869333D01*
X10634143Y-13869333D02*
X10624619Y-13907428D01*
X10624619Y-13907428D02*
X10615095Y-13926476D01*
X10615095Y-13926476D02*
X10605572Y-13936000D01*
X10605572Y-13936000D02*
X10586524Y-13945524D01*
X10586524Y-13945524D02*
X10567476Y-13945524D01*
X10567476Y-13945524D02*
X10548429Y-13936000D01*
X10548429Y-13936000D02*
X10538905Y-13926476D01*
X10538905Y-13926476D02*
X10529381Y-13907428D01*
X10529381Y-13907428D02*
X10519857Y-13869333D01*
X10519857Y-13869333D02*
X10519857Y-13821714D01*
X10519857Y-13821714D02*
X10529381Y-13783619D01*
X10529381Y-13783619D02*
X10538905Y-13764571D01*
X10538905Y-13764571D02*
X10548429Y-13755048D01*
X10548429Y-13755048D02*
X10567476Y-13745524D01*
X10719857Y-13926476D02*
X10729381Y-13936000D01*
X10729381Y-13936000D02*
X10719857Y-13945524D01*
X10719857Y-13945524D02*
X10710334Y-13936000D01*
X10710334Y-13936000D02*
X10719857Y-13926476D01*
X10719857Y-13926476D02*
X10719857Y-13945524D01*
X10853191Y-13745524D02*
X10872238Y-13745524D01*
X10872238Y-13745524D02*
X10891286Y-13755048D01*
X10891286Y-13755048D02*
X10900810Y-13764571D01*
X10900810Y-13764571D02*
X10910334Y-13783619D01*
X10910334Y-13783619D02*
X10919857Y-13821714D01*
X10919857Y-13821714D02*
X10919857Y-13869333D01*
X10919857Y-13869333D02*
X10910334Y-13907428D01*
X10910334Y-13907428D02*
X10900810Y-13926476D01*
X10900810Y-13926476D02*
X10891286Y-13936000D01*
X10891286Y-13936000D02*
X10872238Y-13945524D01*
X10872238Y-13945524D02*
X10853191Y-13945524D01*
X10853191Y-13945524D02*
X10834143Y-13936000D01*
X10834143Y-13936000D02*
X10824619Y-13926476D01*
X10824619Y-13926476D02*
X10815095Y-13907428D01*
X10815095Y-13907428D02*
X10805572Y-13869333D01*
X10805572Y-13869333D02*
X10805572Y-13821714D01*
X10805572Y-13821714D02*
X10815095Y-13783619D01*
X10815095Y-13783619D02*
X10824619Y-13764571D01*
X10824619Y-13764571D02*
X10834143Y-13755048D01*
X10834143Y-13755048D02*
X10853191Y-13745524D01*
X10986524Y-13745524D02*
X11110334Y-13745524D01*
X11110334Y-13745524D02*
X11043667Y-13821714D01*
X11043667Y-13821714D02*
X11072238Y-13821714D01*
X11072238Y-13821714D02*
X11091286Y-13831238D01*
X11091286Y-13831238D02*
X11100810Y-13840762D01*
X11100810Y-13840762D02*
X11110334Y-13859809D01*
X11110334Y-13859809D02*
X11110334Y-13907428D01*
X11110334Y-13907428D02*
X11100810Y-13926476D01*
X11100810Y-13926476D02*
X11091286Y-13936000D01*
X11091286Y-13936000D02*
X11072238Y-13945524D01*
X11072238Y-13945524D02*
X11015095Y-13945524D01*
X11015095Y-13945524D02*
X10996048Y-13936000D01*
X10996048Y-13936000D02*
X10986524Y-13926476D01*
X11300810Y-13945524D02*
X11186524Y-13945524D01*
X11243667Y-13945524D02*
X11243667Y-13745524D01*
X11243667Y-13745524D02*
X11224619Y-13774095D01*
X11224619Y-13774095D02*
X11205572Y-13793143D01*
X11205572Y-13793143D02*
X11186524Y-13802667D01*
X11481762Y-13745524D02*
X11386524Y-13745524D01*
X11386524Y-13745524D02*
X11377000Y-13840762D01*
X11377000Y-13840762D02*
X11386524Y-13831238D01*
X11386524Y-13831238D02*
X11405572Y-13821714D01*
X11405572Y-13821714D02*
X11453191Y-13821714D01*
X11453191Y-13821714D02*
X11472238Y-13831238D01*
X11472238Y-13831238D02*
X11481762Y-13840762D01*
X11481762Y-13840762D02*
X11491286Y-13859809D01*
X11491286Y-13859809D02*
X11491286Y-13907428D01*
X11491286Y-13907428D02*
X11481762Y-13926476D01*
X11481762Y-13926476D02*
X11472238Y-13936000D01*
X11472238Y-13936000D02*
X11453191Y-13945524D01*
X11453191Y-13945524D02*
X11405572Y-13945524D01*
X11405572Y-13945524D02*
X11386524Y-13936000D01*
X11386524Y-13936000D02*
X11377000Y-13926476D01*
X11567476Y-13745524D02*
X11567476Y-13783619D01*
X11643667Y-13745524D02*
X11643667Y-13783619D01*
X11938905Y-14021714D02*
X11929381Y-14012190D01*
X11929381Y-14012190D02*
X11910334Y-13983619D01*
X11910334Y-13983619D02*
X11900810Y-13964571D01*
X11900810Y-13964571D02*
X11891286Y-13936000D01*
X11891286Y-13936000D02*
X11881762Y-13888381D01*
X11881762Y-13888381D02*
X11881762Y-13850286D01*
X11881762Y-13850286D02*
X11891286Y-13802667D01*
X11891286Y-13802667D02*
X11900810Y-13774095D01*
X11900810Y-13774095D02*
X11910334Y-13755048D01*
X11910334Y-13755048D02*
X11929381Y-13726476D01*
X11929381Y-13726476D02*
X11938905Y-13716952D01*
X12005572Y-13764571D02*
X12015095Y-13755048D01*
X12015095Y-13755048D02*
X12034143Y-13745524D01*
X12034143Y-13745524D02*
X12081762Y-13745524D01*
X12081762Y-13745524D02*
X12100810Y-13755048D01*
X12100810Y-13755048D02*
X12110334Y-13764571D01*
X12110334Y-13764571D02*
X12119857Y-13783619D01*
X12119857Y-13783619D02*
X12119857Y-13802667D01*
X12119857Y-13802667D02*
X12110334Y-13831238D01*
X12110334Y-13831238D02*
X11996048Y-13945524D01*
X11996048Y-13945524D02*
X12119857Y-13945524D01*
X12291286Y-13745524D02*
X12253191Y-13745524D01*
X12253191Y-13745524D02*
X12234143Y-13755048D01*
X12234143Y-13755048D02*
X12224619Y-13764571D01*
X12224619Y-13764571D02*
X12205572Y-13793143D01*
X12205572Y-13793143D02*
X12196048Y-13831238D01*
X12196048Y-13831238D02*
X12196048Y-13907428D01*
X12196048Y-13907428D02*
X12205572Y-13926476D01*
X12205572Y-13926476D02*
X12215095Y-13936000D01*
X12215095Y-13936000D02*
X12234143Y-13945524D01*
X12234143Y-13945524D02*
X12272238Y-13945524D01*
X12272238Y-13945524D02*
X12291286Y-13936000D01*
X12291286Y-13936000D02*
X12300810Y-13926476D01*
X12300810Y-13926476D02*
X12310334Y-13907428D01*
X12310334Y-13907428D02*
X12310334Y-13859809D01*
X12310334Y-13859809D02*
X12300810Y-13840762D01*
X12300810Y-13840762D02*
X12291286Y-13831238D01*
X12291286Y-13831238D02*
X12272238Y-13821714D01*
X12272238Y-13821714D02*
X12234143Y-13821714D01*
X12234143Y-13821714D02*
X12215095Y-13831238D01*
X12215095Y-13831238D02*
X12205572Y-13840762D01*
X12205572Y-13840762D02*
X12196048Y-13859809D01*
X12548429Y-13945524D02*
X12548429Y-13745524D01*
X12634143Y-13945524D02*
X12634143Y-13840762D01*
X12634143Y-13840762D02*
X12624619Y-13821714D01*
X12624619Y-13821714D02*
X12605572Y-13812190D01*
X12605572Y-13812190D02*
X12577000Y-13812190D01*
X12577000Y-13812190D02*
X12557953Y-13821714D01*
X12557953Y-13821714D02*
X12548429Y-13831238D01*
X12757953Y-13945524D02*
X12738905Y-13936000D01*
X12738905Y-13936000D02*
X12729381Y-13926476D01*
X12729381Y-13926476D02*
X12719857Y-13907428D01*
X12719857Y-13907428D02*
X12719857Y-13850286D01*
X12719857Y-13850286D02*
X12729381Y-13831238D01*
X12729381Y-13831238D02*
X12738905Y-13821714D01*
X12738905Y-13821714D02*
X12757953Y-13812190D01*
X12757953Y-13812190D02*
X12786524Y-13812190D01*
X12786524Y-13812190D02*
X12805572Y-13821714D01*
X12805572Y-13821714D02*
X12815096Y-13831238D01*
X12815096Y-13831238D02*
X12824619Y-13850286D01*
X12824619Y-13850286D02*
X12824619Y-13907428D01*
X12824619Y-13907428D02*
X12815096Y-13926476D01*
X12815096Y-13926476D02*
X12805572Y-13936000D01*
X12805572Y-13936000D02*
X12786524Y-13945524D01*
X12786524Y-13945524D02*
X12757953Y-13945524D01*
X12938905Y-13945524D02*
X12919857Y-13936000D01*
X12919857Y-13936000D02*
X12910334Y-13916952D01*
X12910334Y-13916952D02*
X12910334Y-13745524D01*
X13091286Y-13936000D02*
X13072238Y-13945524D01*
X13072238Y-13945524D02*
X13034143Y-13945524D01*
X13034143Y-13945524D02*
X13015096Y-13936000D01*
X13015096Y-13936000D02*
X13005572Y-13916952D01*
X13005572Y-13916952D02*
X13005572Y-13840762D01*
X13005572Y-13840762D02*
X13015096Y-13821714D01*
X13015096Y-13821714D02*
X13034143Y-13812190D01*
X13034143Y-13812190D02*
X13072238Y-13812190D01*
X13072238Y-13812190D02*
X13091286Y-13821714D01*
X13091286Y-13821714D02*
X13100810Y-13840762D01*
X13100810Y-13840762D02*
X13100810Y-13859809D01*
X13100810Y-13859809D02*
X13005572Y-13878857D01*
X13177000Y-13936000D02*
X13196048Y-13945524D01*
X13196048Y-13945524D02*
X13234143Y-13945524D01*
X13234143Y-13945524D02*
X13253191Y-13936000D01*
X13253191Y-13936000D02*
X13262715Y-13916952D01*
X13262715Y-13916952D02*
X13262715Y-13907428D01*
X13262715Y-13907428D02*
X13253191Y-13888381D01*
X13253191Y-13888381D02*
X13234143Y-13878857D01*
X13234143Y-13878857D02*
X13205572Y-13878857D01*
X13205572Y-13878857D02*
X13186524Y-13869333D01*
X13186524Y-13869333D02*
X13177000Y-13850286D01*
X13177000Y-13850286D02*
X13177000Y-13840762D01*
X13177000Y-13840762D02*
X13186524Y-13821714D01*
X13186524Y-13821714D02*
X13205572Y-13812190D01*
X13205572Y-13812190D02*
X13234143Y-13812190D01*
X13234143Y-13812190D02*
X13253191Y-13821714D01*
X13329381Y-14021714D02*
X13338905Y-14012190D01*
X13338905Y-14012190D02*
X13357953Y-13983619D01*
X13357953Y-13983619D02*
X13367477Y-13964571D01*
X13367477Y-13964571D02*
X13377000Y-13936000D01*
X13377000Y-13936000D02*
X13386524Y-13888381D01*
X13386524Y-13888381D02*
X13386524Y-13850286D01*
X13386524Y-13850286D02*
X13377000Y-13802667D01*
X13377000Y-13802667D02*
X13367477Y-13774095D01*
X13367477Y-13774095D02*
X13357953Y-13755048D01*
X13357953Y-13755048D02*
X13338905Y-13726476D01*
X13338905Y-13726476D02*
X13329381Y-13716952D01*
D13*
X8377000Y-14117000D02*
G75*
G03*
X8377000Y-14117000I-42500J0D01*
G01*
D11*
X8662714Y-14009524D02*
X8681762Y-14009524D01*
X8681762Y-14009524D02*
X8700810Y-14019048D01*
X8700810Y-14019048D02*
X8710333Y-14028571D01*
X8710333Y-14028571D02*
X8719857Y-14047619D01*
X8719857Y-14047619D02*
X8729381Y-14085714D01*
X8729381Y-14085714D02*
X8729381Y-14133333D01*
X8729381Y-14133333D02*
X8719857Y-14171428D01*
X8719857Y-14171428D02*
X8710333Y-14190476D01*
X8710333Y-14190476D02*
X8700810Y-14200000D01*
X8700810Y-14200000D02*
X8681762Y-14209524D01*
X8681762Y-14209524D02*
X8662714Y-14209524D01*
X8662714Y-14209524D02*
X8643667Y-14200000D01*
X8643667Y-14200000D02*
X8634143Y-14190476D01*
X8634143Y-14190476D02*
X8624619Y-14171428D01*
X8624619Y-14171428D02*
X8615095Y-14133333D01*
X8615095Y-14133333D02*
X8615095Y-14085714D01*
X8615095Y-14085714D02*
X8624619Y-14047619D01*
X8624619Y-14047619D02*
X8634143Y-14028571D01*
X8634143Y-14028571D02*
X8643667Y-14019048D01*
X8643667Y-14019048D02*
X8662714Y-14009524D01*
X8815095Y-14190476D02*
X8824619Y-14200000D01*
X8824619Y-14200000D02*
X8815095Y-14209524D01*
X8815095Y-14209524D02*
X8805571Y-14200000D01*
X8805571Y-14200000D02*
X8815095Y-14190476D01*
X8815095Y-14190476D02*
X8815095Y-14209524D01*
X8938905Y-14095238D02*
X8919857Y-14085714D01*
X8919857Y-14085714D02*
X8910333Y-14076190D01*
X8910333Y-14076190D02*
X8900810Y-14057143D01*
X8900810Y-14057143D02*
X8900810Y-14047619D01*
X8900810Y-14047619D02*
X8910333Y-14028571D01*
X8910333Y-14028571D02*
X8919857Y-14019048D01*
X8919857Y-14019048D02*
X8938905Y-14009524D01*
X8938905Y-14009524D02*
X8977000Y-14009524D01*
X8977000Y-14009524D02*
X8996048Y-14019048D01*
X8996048Y-14019048D02*
X9005571Y-14028571D01*
X9005571Y-14028571D02*
X9015095Y-14047619D01*
X9015095Y-14047619D02*
X9015095Y-14057143D01*
X9015095Y-14057143D02*
X9005571Y-14076190D01*
X9005571Y-14076190D02*
X8996048Y-14085714D01*
X8996048Y-14085714D02*
X8977000Y-14095238D01*
X8977000Y-14095238D02*
X8938905Y-14095238D01*
X8938905Y-14095238D02*
X8919857Y-14104762D01*
X8919857Y-14104762D02*
X8910333Y-14114286D01*
X8910333Y-14114286D02*
X8900810Y-14133333D01*
X8900810Y-14133333D02*
X8900810Y-14171428D01*
X8900810Y-14171428D02*
X8910333Y-14190476D01*
X8910333Y-14190476D02*
X8919857Y-14200000D01*
X8919857Y-14200000D02*
X8938905Y-14209524D01*
X8938905Y-14209524D02*
X8977000Y-14209524D01*
X8977000Y-14209524D02*
X8996048Y-14200000D01*
X8996048Y-14200000D02*
X9005571Y-14190476D01*
X9005571Y-14190476D02*
X9015095Y-14171428D01*
X9015095Y-14171428D02*
X9015095Y-14133333D01*
X9015095Y-14133333D02*
X9005571Y-14114286D01*
X9005571Y-14114286D02*
X8996048Y-14104762D01*
X8996048Y-14104762D02*
X8977000Y-14095238D01*
X9196048Y-14009524D02*
X9100810Y-14009524D01*
X9100810Y-14009524D02*
X9091286Y-14104762D01*
X9091286Y-14104762D02*
X9100810Y-14095238D01*
X9100810Y-14095238D02*
X9119857Y-14085714D01*
X9119857Y-14085714D02*
X9167476Y-14085714D01*
X9167476Y-14085714D02*
X9186524Y-14095238D01*
X9186524Y-14095238D02*
X9196048Y-14104762D01*
X9196048Y-14104762D02*
X9205571Y-14123809D01*
X9205571Y-14123809D02*
X9205571Y-14171428D01*
X9205571Y-14171428D02*
X9196048Y-14190476D01*
X9196048Y-14190476D02*
X9186524Y-14200000D01*
X9186524Y-14200000D02*
X9167476Y-14209524D01*
X9167476Y-14209524D02*
X9119857Y-14209524D01*
X9119857Y-14209524D02*
X9100810Y-14200000D01*
X9100810Y-14200000D02*
X9091286Y-14190476D01*
X9329381Y-14009524D02*
X9348429Y-14009524D01*
X9348429Y-14009524D02*
X9367476Y-14019048D01*
X9367476Y-14019048D02*
X9377000Y-14028571D01*
X9377000Y-14028571D02*
X9386524Y-14047619D01*
X9386524Y-14047619D02*
X9396048Y-14085714D01*
X9396048Y-14085714D02*
X9396048Y-14133333D01*
X9396048Y-14133333D02*
X9386524Y-14171428D01*
X9386524Y-14171428D02*
X9377000Y-14190476D01*
X9377000Y-14190476D02*
X9367476Y-14200000D01*
X9367476Y-14200000D02*
X9348429Y-14209524D01*
X9348429Y-14209524D02*
X9329381Y-14209524D01*
X9329381Y-14209524D02*
X9310333Y-14200000D01*
X9310333Y-14200000D02*
X9300810Y-14190476D01*
X9300810Y-14190476D02*
X9291286Y-14171428D01*
X9291286Y-14171428D02*
X9281762Y-14133333D01*
X9281762Y-14133333D02*
X9281762Y-14085714D01*
X9281762Y-14085714D02*
X9291286Y-14047619D01*
X9291286Y-14047619D02*
X9300810Y-14028571D01*
X9300810Y-14028571D02*
X9310333Y-14019048D01*
X9310333Y-14019048D02*
X9329381Y-14009524D01*
X9481762Y-14209524D02*
X9481762Y-14076190D01*
X9481762Y-14095238D02*
X9491286Y-14085714D01*
X9491286Y-14085714D02*
X9510333Y-14076190D01*
X9510333Y-14076190D02*
X9538905Y-14076190D01*
X9538905Y-14076190D02*
X9557952Y-14085714D01*
X9557952Y-14085714D02*
X9567476Y-14104762D01*
X9567476Y-14104762D02*
X9567476Y-14209524D01*
X9567476Y-14104762D02*
X9577000Y-14085714D01*
X9577000Y-14085714D02*
X9596048Y-14076190D01*
X9596048Y-14076190D02*
X9624619Y-14076190D01*
X9624619Y-14076190D02*
X9643667Y-14085714D01*
X9643667Y-14085714D02*
X9653191Y-14104762D01*
X9653191Y-14104762D02*
X9653191Y-14209524D01*
X9748429Y-14209524D02*
X9748429Y-14076190D01*
X9748429Y-14095238D02*
X9757952Y-14085714D01*
X9757952Y-14085714D02*
X9777000Y-14076190D01*
X9777000Y-14076190D02*
X9805572Y-14076190D01*
X9805572Y-14076190D02*
X9824619Y-14085714D01*
X9824619Y-14085714D02*
X9834143Y-14104762D01*
X9834143Y-14104762D02*
X9834143Y-14209524D01*
X9834143Y-14104762D02*
X9843667Y-14085714D01*
X9843667Y-14085714D02*
X9862714Y-14076190D01*
X9862714Y-14076190D02*
X9891286Y-14076190D01*
X9891286Y-14076190D02*
X9910333Y-14085714D01*
X9910333Y-14085714D02*
X9919857Y-14104762D01*
X9919857Y-14104762D02*
X9919857Y-14209524D01*
X10310333Y-14000000D02*
X10138905Y-14257143D01*
X10567476Y-14009524D02*
X10586524Y-14009524D01*
X10586524Y-14009524D02*
X10605572Y-14019048D01*
X10605572Y-14019048D02*
X10615095Y-14028571D01*
X10615095Y-14028571D02*
X10624619Y-14047619D01*
X10624619Y-14047619D02*
X10634143Y-14085714D01*
X10634143Y-14085714D02*
X10634143Y-14133333D01*
X10634143Y-14133333D02*
X10624619Y-14171428D01*
X10624619Y-14171428D02*
X10615095Y-14190476D01*
X10615095Y-14190476D02*
X10605572Y-14200000D01*
X10605572Y-14200000D02*
X10586524Y-14209524D01*
X10586524Y-14209524D02*
X10567476Y-14209524D01*
X10567476Y-14209524D02*
X10548429Y-14200000D01*
X10548429Y-14200000D02*
X10538905Y-14190476D01*
X10538905Y-14190476D02*
X10529381Y-14171428D01*
X10529381Y-14171428D02*
X10519857Y-14133333D01*
X10519857Y-14133333D02*
X10519857Y-14085714D01*
X10519857Y-14085714D02*
X10529381Y-14047619D01*
X10529381Y-14047619D02*
X10538905Y-14028571D01*
X10538905Y-14028571D02*
X10548429Y-14019048D01*
X10548429Y-14019048D02*
X10567476Y-14009524D01*
X10719857Y-14190476D02*
X10729381Y-14200000D01*
X10729381Y-14200000D02*
X10719857Y-14209524D01*
X10719857Y-14209524D02*
X10710334Y-14200000D01*
X10710334Y-14200000D02*
X10719857Y-14190476D01*
X10719857Y-14190476D02*
X10719857Y-14209524D01*
X10853191Y-14009524D02*
X10872238Y-14009524D01*
X10872238Y-14009524D02*
X10891286Y-14019048D01*
X10891286Y-14019048D02*
X10900810Y-14028571D01*
X10900810Y-14028571D02*
X10910334Y-14047619D01*
X10910334Y-14047619D02*
X10919857Y-14085714D01*
X10919857Y-14085714D02*
X10919857Y-14133333D01*
X10919857Y-14133333D02*
X10910334Y-14171428D01*
X10910334Y-14171428D02*
X10900810Y-14190476D01*
X10900810Y-14190476D02*
X10891286Y-14200000D01*
X10891286Y-14200000D02*
X10872238Y-14209524D01*
X10872238Y-14209524D02*
X10853191Y-14209524D01*
X10853191Y-14209524D02*
X10834143Y-14200000D01*
X10834143Y-14200000D02*
X10824619Y-14190476D01*
X10824619Y-14190476D02*
X10815095Y-14171428D01*
X10815095Y-14171428D02*
X10805572Y-14133333D01*
X10805572Y-14133333D02*
X10805572Y-14085714D01*
X10805572Y-14085714D02*
X10815095Y-14047619D01*
X10815095Y-14047619D02*
X10824619Y-14028571D01*
X10824619Y-14028571D02*
X10834143Y-14019048D01*
X10834143Y-14019048D02*
X10853191Y-14009524D01*
X10986524Y-14009524D02*
X11110334Y-14009524D01*
X11110334Y-14009524D02*
X11043667Y-14085714D01*
X11043667Y-14085714D02*
X11072238Y-14085714D01*
X11072238Y-14085714D02*
X11091286Y-14095238D01*
X11091286Y-14095238D02*
X11100810Y-14104762D01*
X11100810Y-14104762D02*
X11110334Y-14123809D01*
X11110334Y-14123809D02*
X11110334Y-14171428D01*
X11110334Y-14171428D02*
X11100810Y-14190476D01*
X11100810Y-14190476D02*
X11091286Y-14200000D01*
X11091286Y-14200000D02*
X11072238Y-14209524D01*
X11072238Y-14209524D02*
X11015095Y-14209524D01*
X11015095Y-14209524D02*
X10996048Y-14200000D01*
X10996048Y-14200000D02*
X10986524Y-14190476D01*
X11177000Y-14009524D02*
X11300810Y-14009524D01*
X11300810Y-14009524D02*
X11234143Y-14085714D01*
X11234143Y-14085714D02*
X11262714Y-14085714D01*
X11262714Y-14085714D02*
X11281762Y-14095238D01*
X11281762Y-14095238D02*
X11291286Y-14104762D01*
X11291286Y-14104762D02*
X11300810Y-14123809D01*
X11300810Y-14123809D02*
X11300810Y-14171428D01*
X11300810Y-14171428D02*
X11291286Y-14190476D01*
X11291286Y-14190476D02*
X11281762Y-14200000D01*
X11281762Y-14200000D02*
X11262714Y-14209524D01*
X11262714Y-14209524D02*
X11205572Y-14209524D01*
X11205572Y-14209524D02*
X11186524Y-14200000D01*
X11186524Y-14200000D02*
X11177000Y-14190476D01*
X11481762Y-14009524D02*
X11386524Y-14009524D01*
X11386524Y-14009524D02*
X11377000Y-14104762D01*
X11377000Y-14104762D02*
X11386524Y-14095238D01*
X11386524Y-14095238D02*
X11405572Y-14085714D01*
X11405572Y-14085714D02*
X11453191Y-14085714D01*
X11453191Y-14085714D02*
X11472238Y-14095238D01*
X11472238Y-14095238D02*
X11481762Y-14104762D01*
X11481762Y-14104762D02*
X11491286Y-14123809D01*
X11491286Y-14123809D02*
X11491286Y-14171428D01*
X11491286Y-14171428D02*
X11481762Y-14190476D01*
X11481762Y-14190476D02*
X11472238Y-14200000D01*
X11472238Y-14200000D02*
X11453191Y-14209524D01*
X11453191Y-14209524D02*
X11405572Y-14209524D01*
X11405572Y-14209524D02*
X11386524Y-14200000D01*
X11386524Y-14200000D02*
X11377000Y-14190476D01*
X11567476Y-14009524D02*
X11567476Y-14047619D01*
X11643667Y-14009524D02*
X11643667Y-14047619D01*
X11938905Y-14285714D02*
X11929381Y-14276190D01*
X11929381Y-14276190D02*
X11910334Y-14247619D01*
X11910334Y-14247619D02*
X11900810Y-14228571D01*
X11900810Y-14228571D02*
X11891286Y-14200000D01*
X11891286Y-14200000D02*
X11881762Y-14152381D01*
X11881762Y-14152381D02*
X11881762Y-14114286D01*
X11881762Y-14114286D02*
X11891286Y-14066667D01*
X11891286Y-14066667D02*
X11900810Y-14038095D01*
X11900810Y-14038095D02*
X11910334Y-14019048D01*
X11910334Y-14019048D02*
X11929381Y-13990476D01*
X11929381Y-13990476D02*
X11938905Y-13980952D01*
X12119857Y-14209524D02*
X12005572Y-14209524D01*
X12062714Y-14209524D02*
X12062714Y-14009524D01*
X12062714Y-14009524D02*
X12043667Y-14038095D01*
X12043667Y-14038095D02*
X12024619Y-14057143D01*
X12024619Y-14057143D02*
X12005572Y-14066667D01*
X12196048Y-14028571D02*
X12205572Y-14019048D01*
X12205572Y-14019048D02*
X12224619Y-14009524D01*
X12224619Y-14009524D02*
X12272238Y-14009524D01*
X12272238Y-14009524D02*
X12291286Y-14019048D01*
X12291286Y-14019048D02*
X12300810Y-14028571D01*
X12300810Y-14028571D02*
X12310334Y-14047619D01*
X12310334Y-14047619D02*
X12310334Y-14066667D01*
X12310334Y-14066667D02*
X12300810Y-14095238D01*
X12300810Y-14095238D02*
X12186524Y-14209524D01*
X12186524Y-14209524D02*
X12310334Y-14209524D01*
X12424619Y-14095238D02*
X12405572Y-14085714D01*
X12405572Y-14085714D02*
X12396048Y-14076190D01*
X12396048Y-14076190D02*
X12386524Y-14057143D01*
X12386524Y-14057143D02*
X12386524Y-14047619D01*
X12386524Y-14047619D02*
X12396048Y-14028571D01*
X12396048Y-14028571D02*
X12405572Y-14019048D01*
X12405572Y-14019048D02*
X12424619Y-14009524D01*
X12424619Y-14009524D02*
X12462715Y-14009524D01*
X12462715Y-14009524D02*
X12481762Y-14019048D01*
X12481762Y-14019048D02*
X12491286Y-14028571D01*
X12491286Y-14028571D02*
X12500810Y-14047619D01*
X12500810Y-14047619D02*
X12500810Y-14057143D01*
X12500810Y-14057143D02*
X12491286Y-14076190D01*
X12491286Y-14076190D02*
X12481762Y-14085714D01*
X12481762Y-14085714D02*
X12462715Y-14095238D01*
X12462715Y-14095238D02*
X12424619Y-14095238D01*
X12424619Y-14095238D02*
X12405572Y-14104762D01*
X12405572Y-14104762D02*
X12396048Y-14114286D01*
X12396048Y-14114286D02*
X12386524Y-14133333D01*
X12386524Y-14133333D02*
X12386524Y-14171428D01*
X12386524Y-14171428D02*
X12396048Y-14190476D01*
X12396048Y-14190476D02*
X12405572Y-14200000D01*
X12405572Y-14200000D02*
X12424619Y-14209524D01*
X12424619Y-14209524D02*
X12462715Y-14209524D01*
X12462715Y-14209524D02*
X12481762Y-14200000D01*
X12481762Y-14200000D02*
X12491286Y-14190476D01*
X12491286Y-14190476D02*
X12500810Y-14171428D01*
X12500810Y-14171428D02*
X12500810Y-14133333D01*
X12500810Y-14133333D02*
X12491286Y-14114286D01*
X12491286Y-14114286D02*
X12481762Y-14104762D01*
X12481762Y-14104762D02*
X12462715Y-14095238D01*
X12738905Y-14209524D02*
X12738905Y-14009524D01*
X12824619Y-14209524D02*
X12824619Y-14104762D01*
X12824619Y-14104762D02*
X12815096Y-14085714D01*
X12815096Y-14085714D02*
X12796048Y-14076190D01*
X12796048Y-14076190D02*
X12767476Y-14076190D01*
X12767476Y-14076190D02*
X12748429Y-14085714D01*
X12748429Y-14085714D02*
X12738905Y-14095238D01*
X12948429Y-14209524D02*
X12929381Y-14200000D01*
X12929381Y-14200000D02*
X12919857Y-14190476D01*
X12919857Y-14190476D02*
X12910334Y-14171428D01*
X12910334Y-14171428D02*
X12910334Y-14114286D01*
X12910334Y-14114286D02*
X12919857Y-14095238D01*
X12919857Y-14095238D02*
X12929381Y-14085714D01*
X12929381Y-14085714D02*
X12948429Y-14076190D01*
X12948429Y-14076190D02*
X12977000Y-14076190D01*
X12977000Y-14076190D02*
X12996048Y-14085714D01*
X12996048Y-14085714D02*
X13005572Y-14095238D01*
X13005572Y-14095238D02*
X13015096Y-14114286D01*
X13015096Y-14114286D02*
X13015096Y-14171428D01*
X13015096Y-14171428D02*
X13005572Y-14190476D01*
X13005572Y-14190476D02*
X12996048Y-14200000D01*
X12996048Y-14200000D02*
X12977000Y-14209524D01*
X12977000Y-14209524D02*
X12948429Y-14209524D01*
X13129381Y-14209524D02*
X13110334Y-14200000D01*
X13110334Y-14200000D02*
X13100810Y-14180952D01*
X13100810Y-14180952D02*
X13100810Y-14009524D01*
X13281762Y-14200000D02*
X13262715Y-14209524D01*
X13262715Y-14209524D02*
X13224619Y-14209524D01*
X13224619Y-14209524D02*
X13205572Y-14200000D01*
X13205572Y-14200000D02*
X13196048Y-14180952D01*
X13196048Y-14180952D02*
X13196048Y-14104762D01*
X13196048Y-14104762D02*
X13205572Y-14085714D01*
X13205572Y-14085714D02*
X13224619Y-14076190D01*
X13224619Y-14076190D02*
X13262715Y-14076190D01*
X13262715Y-14076190D02*
X13281762Y-14085714D01*
X13281762Y-14085714D02*
X13291286Y-14104762D01*
X13291286Y-14104762D02*
X13291286Y-14123809D01*
X13291286Y-14123809D02*
X13196048Y-14142857D01*
X13367477Y-14200000D02*
X13386524Y-14209524D01*
X13386524Y-14209524D02*
X13424619Y-14209524D01*
X13424619Y-14209524D02*
X13443667Y-14200000D01*
X13443667Y-14200000D02*
X13453191Y-14180952D01*
X13453191Y-14180952D02*
X13453191Y-14171428D01*
X13453191Y-14171428D02*
X13443667Y-14152381D01*
X13443667Y-14152381D02*
X13424619Y-14142857D01*
X13424619Y-14142857D02*
X13396048Y-14142857D01*
X13396048Y-14142857D02*
X13377000Y-14133333D01*
X13377000Y-14133333D02*
X13367477Y-14114286D01*
X13367477Y-14114286D02*
X13367477Y-14104762D01*
X13367477Y-14104762D02*
X13377000Y-14085714D01*
X13377000Y-14085714D02*
X13396048Y-14076190D01*
X13396048Y-14076190D02*
X13424619Y-14076190D01*
X13424619Y-14076190D02*
X13443667Y-14085714D01*
X13519858Y-14285714D02*
X13529381Y-14276190D01*
X13529381Y-14276190D02*
X13548429Y-14247619D01*
X13548429Y-14247619D02*
X13557953Y-14228571D01*
X13557953Y-14228571D02*
X13567477Y-14200000D01*
X13567477Y-14200000D02*
X13577000Y-14152381D01*
X13577000Y-14152381D02*
X13577000Y-14114286D01*
X13577000Y-14114286D02*
X13567477Y-14066667D01*
X13567477Y-14066667D02*
X13557953Y-14038095D01*
X13557953Y-14038095D02*
X13548429Y-14019048D01*
X13548429Y-14019048D02*
X13529381Y-13990476D01*
X13529381Y-13990476D02*
X13519858Y-13980952D01*
D10*
X8327000Y-14331000D02*
X8327000Y-14431000D01*
X8277000Y-14381000D02*
X8377000Y-14381000D01*
D11*
X8729381Y-14473524D02*
X8615095Y-14473524D01*
X8672238Y-14473524D02*
X8672238Y-14273524D01*
X8672238Y-14273524D02*
X8653190Y-14302095D01*
X8653190Y-14302095D02*
X8634143Y-14321143D01*
X8634143Y-14321143D02*
X8615095Y-14330667D01*
X8815095Y-14454476D02*
X8824619Y-14464000D01*
X8824619Y-14464000D02*
X8815095Y-14473524D01*
X8815095Y-14473524D02*
X8805571Y-14464000D01*
X8805571Y-14464000D02*
X8815095Y-14454476D01*
X8815095Y-14454476D02*
X8815095Y-14473524D01*
X8948429Y-14273524D02*
X8967476Y-14273524D01*
X8967476Y-14273524D02*
X8986524Y-14283048D01*
X8986524Y-14283048D02*
X8996048Y-14292571D01*
X8996048Y-14292571D02*
X9005571Y-14311619D01*
X9005571Y-14311619D02*
X9015095Y-14349714D01*
X9015095Y-14349714D02*
X9015095Y-14397333D01*
X9015095Y-14397333D02*
X9005571Y-14435428D01*
X9005571Y-14435428D02*
X8996048Y-14454476D01*
X8996048Y-14454476D02*
X8986524Y-14464000D01*
X8986524Y-14464000D02*
X8967476Y-14473524D01*
X8967476Y-14473524D02*
X8948429Y-14473524D01*
X8948429Y-14473524D02*
X8929381Y-14464000D01*
X8929381Y-14464000D02*
X8919857Y-14454476D01*
X8919857Y-14454476D02*
X8910333Y-14435428D01*
X8910333Y-14435428D02*
X8900810Y-14397333D01*
X8900810Y-14397333D02*
X8900810Y-14349714D01*
X8900810Y-14349714D02*
X8910333Y-14311619D01*
X8910333Y-14311619D02*
X8919857Y-14292571D01*
X8919857Y-14292571D02*
X8929381Y-14283048D01*
X8929381Y-14283048D02*
X8948429Y-14273524D01*
X9138905Y-14273524D02*
X9157952Y-14273524D01*
X9157952Y-14273524D02*
X9177000Y-14283048D01*
X9177000Y-14283048D02*
X9186524Y-14292571D01*
X9186524Y-14292571D02*
X9196048Y-14311619D01*
X9196048Y-14311619D02*
X9205571Y-14349714D01*
X9205571Y-14349714D02*
X9205571Y-14397333D01*
X9205571Y-14397333D02*
X9196048Y-14435428D01*
X9196048Y-14435428D02*
X9186524Y-14454476D01*
X9186524Y-14454476D02*
X9177000Y-14464000D01*
X9177000Y-14464000D02*
X9157952Y-14473524D01*
X9157952Y-14473524D02*
X9138905Y-14473524D01*
X9138905Y-14473524D02*
X9119857Y-14464000D01*
X9119857Y-14464000D02*
X9110333Y-14454476D01*
X9110333Y-14454476D02*
X9100810Y-14435428D01*
X9100810Y-14435428D02*
X9091286Y-14397333D01*
X9091286Y-14397333D02*
X9091286Y-14349714D01*
X9091286Y-14349714D02*
X9100810Y-14311619D01*
X9100810Y-14311619D02*
X9110333Y-14292571D01*
X9110333Y-14292571D02*
X9119857Y-14283048D01*
X9119857Y-14283048D02*
X9138905Y-14273524D01*
X9329381Y-14273524D02*
X9348429Y-14273524D01*
X9348429Y-14273524D02*
X9367476Y-14283048D01*
X9367476Y-14283048D02*
X9377000Y-14292571D01*
X9377000Y-14292571D02*
X9386524Y-14311619D01*
X9386524Y-14311619D02*
X9396048Y-14349714D01*
X9396048Y-14349714D02*
X9396048Y-14397333D01*
X9396048Y-14397333D02*
X9386524Y-14435428D01*
X9386524Y-14435428D02*
X9377000Y-14454476D01*
X9377000Y-14454476D02*
X9367476Y-14464000D01*
X9367476Y-14464000D02*
X9348429Y-14473524D01*
X9348429Y-14473524D02*
X9329381Y-14473524D01*
X9329381Y-14473524D02*
X9310333Y-14464000D01*
X9310333Y-14464000D02*
X9300810Y-14454476D01*
X9300810Y-14454476D02*
X9291286Y-14435428D01*
X9291286Y-14435428D02*
X9281762Y-14397333D01*
X9281762Y-14397333D02*
X9281762Y-14349714D01*
X9281762Y-14349714D02*
X9291286Y-14311619D01*
X9291286Y-14311619D02*
X9300810Y-14292571D01*
X9300810Y-14292571D02*
X9310333Y-14283048D01*
X9310333Y-14283048D02*
X9329381Y-14273524D01*
X9481762Y-14473524D02*
X9481762Y-14340190D01*
X9481762Y-14359238D02*
X9491286Y-14349714D01*
X9491286Y-14349714D02*
X9510333Y-14340190D01*
X9510333Y-14340190D02*
X9538905Y-14340190D01*
X9538905Y-14340190D02*
X9557952Y-14349714D01*
X9557952Y-14349714D02*
X9567476Y-14368762D01*
X9567476Y-14368762D02*
X9567476Y-14473524D01*
X9567476Y-14368762D02*
X9577000Y-14349714D01*
X9577000Y-14349714D02*
X9596048Y-14340190D01*
X9596048Y-14340190D02*
X9624619Y-14340190D01*
X9624619Y-14340190D02*
X9643667Y-14349714D01*
X9643667Y-14349714D02*
X9653191Y-14368762D01*
X9653191Y-14368762D02*
X9653191Y-14473524D01*
X9748429Y-14473524D02*
X9748429Y-14340190D01*
X9748429Y-14359238D02*
X9757952Y-14349714D01*
X9757952Y-14349714D02*
X9777000Y-14340190D01*
X9777000Y-14340190D02*
X9805572Y-14340190D01*
X9805572Y-14340190D02*
X9824619Y-14349714D01*
X9824619Y-14349714D02*
X9834143Y-14368762D01*
X9834143Y-14368762D02*
X9834143Y-14473524D01*
X9834143Y-14368762D02*
X9843667Y-14349714D01*
X9843667Y-14349714D02*
X9862714Y-14340190D01*
X9862714Y-14340190D02*
X9891286Y-14340190D01*
X9891286Y-14340190D02*
X9910333Y-14349714D01*
X9910333Y-14349714D02*
X9919857Y-14368762D01*
X9919857Y-14368762D02*
X9919857Y-14473524D01*
X10310333Y-14264000D02*
X10138905Y-14521143D01*
X10567476Y-14273524D02*
X10586524Y-14273524D01*
X10586524Y-14273524D02*
X10605572Y-14283048D01*
X10605572Y-14283048D02*
X10615095Y-14292571D01*
X10615095Y-14292571D02*
X10624619Y-14311619D01*
X10624619Y-14311619D02*
X10634143Y-14349714D01*
X10634143Y-14349714D02*
X10634143Y-14397333D01*
X10634143Y-14397333D02*
X10624619Y-14435428D01*
X10624619Y-14435428D02*
X10615095Y-14454476D01*
X10615095Y-14454476D02*
X10605572Y-14464000D01*
X10605572Y-14464000D02*
X10586524Y-14473524D01*
X10586524Y-14473524D02*
X10567476Y-14473524D01*
X10567476Y-14473524D02*
X10548429Y-14464000D01*
X10548429Y-14464000D02*
X10538905Y-14454476D01*
X10538905Y-14454476D02*
X10529381Y-14435428D01*
X10529381Y-14435428D02*
X10519857Y-14397333D01*
X10519857Y-14397333D02*
X10519857Y-14349714D01*
X10519857Y-14349714D02*
X10529381Y-14311619D01*
X10529381Y-14311619D02*
X10538905Y-14292571D01*
X10538905Y-14292571D02*
X10548429Y-14283048D01*
X10548429Y-14283048D02*
X10567476Y-14273524D01*
X10719857Y-14454476D02*
X10729381Y-14464000D01*
X10729381Y-14464000D02*
X10719857Y-14473524D01*
X10719857Y-14473524D02*
X10710334Y-14464000D01*
X10710334Y-14464000D02*
X10719857Y-14454476D01*
X10719857Y-14454476D02*
X10719857Y-14473524D01*
X10853191Y-14273524D02*
X10872238Y-14273524D01*
X10872238Y-14273524D02*
X10891286Y-14283048D01*
X10891286Y-14283048D02*
X10900810Y-14292571D01*
X10900810Y-14292571D02*
X10910334Y-14311619D01*
X10910334Y-14311619D02*
X10919857Y-14349714D01*
X10919857Y-14349714D02*
X10919857Y-14397333D01*
X10919857Y-14397333D02*
X10910334Y-14435428D01*
X10910334Y-14435428D02*
X10900810Y-14454476D01*
X10900810Y-14454476D02*
X10891286Y-14464000D01*
X10891286Y-14464000D02*
X10872238Y-14473524D01*
X10872238Y-14473524D02*
X10853191Y-14473524D01*
X10853191Y-14473524D02*
X10834143Y-14464000D01*
X10834143Y-14464000D02*
X10824619Y-14454476D01*
X10824619Y-14454476D02*
X10815095Y-14435428D01*
X10815095Y-14435428D02*
X10805572Y-14397333D01*
X10805572Y-14397333D02*
X10805572Y-14349714D01*
X10805572Y-14349714D02*
X10815095Y-14311619D01*
X10815095Y-14311619D02*
X10824619Y-14292571D01*
X10824619Y-14292571D02*
X10834143Y-14283048D01*
X10834143Y-14283048D02*
X10853191Y-14273524D01*
X10986524Y-14273524D02*
X11110334Y-14273524D01*
X11110334Y-14273524D02*
X11043667Y-14349714D01*
X11043667Y-14349714D02*
X11072238Y-14349714D01*
X11072238Y-14349714D02*
X11091286Y-14359238D01*
X11091286Y-14359238D02*
X11100810Y-14368762D01*
X11100810Y-14368762D02*
X11110334Y-14387809D01*
X11110334Y-14387809D02*
X11110334Y-14435428D01*
X11110334Y-14435428D02*
X11100810Y-14454476D01*
X11100810Y-14454476D02*
X11091286Y-14464000D01*
X11091286Y-14464000D02*
X11072238Y-14473524D01*
X11072238Y-14473524D02*
X11015095Y-14473524D01*
X11015095Y-14473524D02*
X10996048Y-14464000D01*
X10996048Y-14464000D02*
X10986524Y-14454476D01*
X11205572Y-14473524D02*
X11243667Y-14473524D01*
X11243667Y-14473524D02*
X11262714Y-14464000D01*
X11262714Y-14464000D02*
X11272238Y-14454476D01*
X11272238Y-14454476D02*
X11291286Y-14425905D01*
X11291286Y-14425905D02*
X11300810Y-14387809D01*
X11300810Y-14387809D02*
X11300810Y-14311619D01*
X11300810Y-14311619D02*
X11291286Y-14292571D01*
X11291286Y-14292571D02*
X11281762Y-14283048D01*
X11281762Y-14283048D02*
X11262714Y-14273524D01*
X11262714Y-14273524D02*
X11224619Y-14273524D01*
X11224619Y-14273524D02*
X11205572Y-14283048D01*
X11205572Y-14283048D02*
X11196048Y-14292571D01*
X11196048Y-14292571D02*
X11186524Y-14311619D01*
X11186524Y-14311619D02*
X11186524Y-14359238D01*
X11186524Y-14359238D02*
X11196048Y-14378286D01*
X11196048Y-14378286D02*
X11205572Y-14387809D01*
X11205572Y-14387809D02*
X11224619Y-14397333D01*
X11224619Y-14397333D02*
X11262714Y-14397333D01*
X11262714Y-14397333D02*
X11281762Y-14387809D01*
X11281762Y-14387809D02*
X11291286Y-14378286D01*
X11291286Y-14378286D02*
X11300810Y-14359238D01*
X11472238Y-14340190D02*
X11472238Y-14473524D01*
X11424619Y-14264000D02*
X11377000Y-14406857D01*
X11377000Y-14406857D02*
X11500810Y-14406857D01*
X11567476Y-14273524D02*
X11567476Y-14311619D01*
X11643667Y-14273524D02*
X11643667Y-14311619D01*
X11938905Y-14549714D02*
X11929381Y-14540190D01*
X11929381Y-14540190D02*
X11910334Y-14511619D01*
X11910334Y-14511619D02*
X11900810Y-14492571D01*
X11900810Y-14492571D02*
X11891286Y-14464000D01*
X11891286Y-14464000D02*
X11881762Y-14416381D01*
X11881762Y-14416381D02*
X11881762Y-14378286D01*
X11881762Y-14378286D02*
X11891286Y-14330667D01*
X11891286Y-14330667D02*
X11900810Y-14302095D01*
X11900810Y-14302095D02*
X11910334Y-14283048D01*
X11910334Y-14283048D02*
X11929381Y-14254476D01*
X11929381Y-14254476D02*
X11938905Y-14244952D01*
X12043667Y-14359238D02*
X12024619Y-14349714D01*
X12024619Y-14349714D02*
X12015095Y-14340190D01*
X12015095Y-14340190D02*
X12005572Y-14321143D01*
X12005572Y-14321143D02*
X12005572Y-14311619D01*
X12005572Y-14311619D02*
X12015095Y-14292571D01*
X12015095Y-14292571D02*
X12024619Y-14283048D01*
X12024619Y-14283048D02*
X12043667Y-14273524D01*
X12043667Y-14273524D02*
X12081762Y-14273524D01*
X12081762Y-14273524D02*
X12100810Y-14283048D01*
X12100810Y-14283048D02*
X12110334Y-14292571D01*
X12110334Y-14292571D02*
X12119857Y-14311619D01*
X12119857Y-14311619D02*
X12119857Y-14321143D01*
X12119857Y-14321143D02*
X12110334Y-14340190D01*
X12110334Y-14340190D02*
X12100810Y-14349714D01*
X12100810Y-14349714D02*
X12081762Y-14359238D01*
X12081762Y-14359238D02*
X12043667Y-14359238D01*
X12043667Y-14359238D02*
X12024619Y-14368762D01*
X12024619Y-14368762D02*
X12015095Y-14378286D01*
X12015095Y-14378286D02*
X12005572Y-14397333D01*
X12005572Y-14397333D02*
X12005572Y-14435428D01*
X12005572Y-14435428D02*
X12015095Y-14454476D01*
X12015095Y-14454476D02*
X12024619Y-14464000D01*
X12024619Y-14464000D02*
X12043667Y-14473524D01*
X12043667Y-14473524D02*
X12081762Y-14473524D01*
X12081762Y-14473524D02*
X12100810Y-14464000D01*
X12100810Y-14464000D02*
X12110334Y-14454476D01*
X12110334Y-14454476D02*
X12119857Y-14435428D01*
X12119857Y-14435428D02*
X12119857Y-14397333D01*
X12119857Y-14397333D02*
X12110334Y-14378286D01*
X12110334Y-14378286D02*
X12100810Y-14368762D01*
X12100810Y-14368762D02*
X12081762Y-14359238D01*
X12291286Y-14273524D02*
X12253191Y-14273524D01*
X12253191Y-14273524D02*
X12234143Y-14283048D01*
X12234143Y-14283048D02*
X12224619Y-14292571D01*
X12224619Y-14292571D02*
X12205572Y-14321143D01*
X12205572Y-14321143D02*
X12196048Y-14359238D01*
X12196048Y-14359238D02*
X12196048Y-14435428D01*
X12196048Y-14435428D02*
X12205572Y-14454476D01*
X12205572Y-14454476D02*
X12215095Y-14464000D01*
X12215095Y-14464000D02*
X12234143Y-14473524D01*
X12234143Y-14473524D02*
X12272238Y-14473524D01*
X12272238Y-14473524D02*
X12291286Y-14464000D01*
X12291286Y-14464000D02*
X12300810Y-14454476D01*
X12300810Y-14454476D02*
X12310334Y-14435428D01*
X12310334Y-14435428D02*
X12310334Y-14387809D01*
X12310334Y-14387809D02*
X12300810Y-14368762D01*
X12300810Y-14368762D02*
X12291286Y-14359238D01*
X12291286Y-14359238D02*
X12272238Y-14349714D01*
X12272238Y-14349714D02*
X12234143Y-14349714D01*
X12234143Y-14349714D02*
X12215095Y-14359238D01*
X12215095Y-14359238D02*
X12205572Y-14368762D01*
X12205572Y-14368762D02*
X12196048Y-14387809D01*
X12548429Y-14473524D02*
X12548429Y-14273524D01*
X12634143Y-14473524D02*
X12634143Y-14368762D01*
X12634143Y-14368762D02*
X12624619Y-14349714D01*
X12624619Y-14349714D02*
X12605572Y-14340190D01*
X12605572Y-14340190D02*
X12577000Y-14340190D01*
X12577000Y-14340190D02*
X12557953Y-14349714D01*
X12557953Y-14349714D02*
X12548429Y-14359238D01*
X12757953Y-14473524D02*
X12738905Y-14464000D01*
X12738905Y-14464000D02*
X12729381Y-14454476D01*
X12729381Y-14454476D02*
X12719857Y-14435428D01*
X12719857Y-14435428D02*
X12719857Y-14378286D01*
X12719857Y-14378286D02*
X12729381Y-14359238D01*
X12729381Y-14359238D02*
X12738905Y-14349714D01*
X12738905Y-14349714D02*
X12757953Y-14340190D01*
X12757953Y-14340190D02*
X12786524Y-14340190D01*
X12786524Y-14340190D02*
X12805572Y-14349714D01*
X12805572Y-14349714D02*
X12815096Y-14359238D01*
X12815096Y-14359238D02*
X12824619Y-14378286D01*
X12824619Y-14378286D02*
X12824619Y-14435428D01*
X12824619Y-14435428D02*
X12815096Y-14454476D01*
X12815096Y-14454476D02*
X12805572Y-14464000D01*
X12805572Y-14464000D02*
X12786524Y-14473524D01*
X12786524Y-14473524D02*
X12757953Y-14473524D01*
X12938905Y-14473524D02*
X12919857Y-14464000D01*
X12919857Y-14464000D02*
X12910334Y-14444952D01*
X12910334Y-14444952D02*
X12910334Y-14273524D01*
X13091286Y-14464000D02*
X13072238Y-14473524D01*
X13072238Y-14473524D02*
X13034143Y-14473524D01*
X13034143Y-14473524D02*
X13015096Y-14464000D01*
X13015096Y-14464000D02*
X13005572Y-14444952D01*
X13005572Y-14444952D02*
X13005572Y-14368762D01*
X13005572Y-14368762D02*
X13015096Y-14349714D01*
X13015096Y-14349714D02*
X13034143Y-14340190D01*
X13034143Y-14340190D02*
X13072238Y-14340190D01*
X13072238Y-14340190D02*
X13091286Y-14349714D01*
X13091286Y-14349714D02*
X13100810Y-14368762D01*
X13100810Y-14368762D02*
X13100810Y-14387809D01*
X13100810Y-14387809D02*
X13005572Y-14406857D01*
X13177000Y-14464000D02*
X13196048Y-14473524D01*
X13196048Y-14473524D02*
X13234143Y-14473524D01*
X13234143Y-14473524D02*
X13253191Y-14464000D01*
X13253191Y-14464000D02*
X13262715Y-14444952D01*
X13262715Y-14444952D02*
X13262715Y-14435428D01*
X13262715Y-14435428D02*
X13253191Y-14416381D01*
X13253191Y-14416381D02*
X13234143Y-14406857D01*
X13234143Y-14406857D02*
X13205572Y-14406857D01*
X13205572Y-14406857D02*
X13186524Y-14397333D01*
X13186524Y-14397333D02*
X13177000Y-14378286D01*
X13177000Y-14378286D02*
X13177000Y-14368762D01*
X13177000Y-14368762D02*
X13186524Y-14349714D01*
X13186524Y-14349714D02*
X13205572Y-14340190D01*
X13205572Y-14340190D02*
X13234143Y-14340190D01*
X13234143Y-14340190D02*
X13253191Y-14349714D01*
X13329381Y-14549714D02*
X13338905Y-14540190D01*
X13338905Y-14540190D02*
X13357953Y-14511619D01*
X13357953Y-14511619D02*
X13367477Y-14492571D01*
X13367477Y-14492571D02*
X13377000Y-14464000D01*
X13377000Y-14464000D02*
X13386524Y-14416381D01*
X13386524Y-14416381D02*
X13386524Y-14378286D01*
X13386524Y-14378286D02*
X13377000Y-14330667D01*
X13377000Y-14330667D02*
X13367477Y-14302095D01*
X13367477Y-14302095D02*
X13357953Y-14283048D01*
X13357953Y-14283048D02*
X13338905Y-14254476D01*
X13338905Y-14254476D02*
X13329381Y-14244952D01*
M02*
