%TF.GenerationSoftware,KiCad,Pcbnew,7.0.1*%
%TF.CreationDate,2023-11-08T17:30:37+01:00*%
%TF.ProjectId,keyboard,6b657962-6f61-4726-942e-6b696361645f,rev?*%
%TF.SameCoordinates,Original*%
%TF.FileFunction,Copper,L2,Bot*%
%TF.FilePolarity,Positive*%
%FSLAX46Y46*%
G04 Gerber Fmt 4.6, Leading zero omitted, Abs format (unit mm)*
G04 Created by KiCad (PCBNEW 7.0.1) date 2023-11-08 17:30:37*
%MOMM*%
%LPD*%
G01*
G04 APERTURE LIST*
%TA.AperFunction,ComponentPad*%
%ADD10R,1.260000X1.260000*%
%TD*%
%TA.AperFunction,ComponentPad*%
%ADD11C,1.260000*%
%TD*%
%TA.AperFunction,ComponentPad*%
%ADD12R,1.700000X1.700000*%
%TD*%
%TA.AperFunction,ComponentPad*%
%ADD13O,1.700000X1.700000*%
%TD*%
%TA.AperFunction,ComponentPad*%
%ADD14O,1.350000X1.350000*%
%TD*%
%TA.AperFunction,ComponentPad*%
%ADD15R,1.350000X1.350000*%
%TD*%
%TA.AperFunction,Conductor*%
%ADD16C,0.250000*%
%TD*%
G04 APERTURE END LIST*
D10*
%TO.P,Q30,1*%
%TO.N,Net-(J7-Pin_5)*%
X151130000Y-77470000D03*
D11*
%TO.P,Q30,2*%
%TO.N,Net-(J4-Pin_6)*%
X151130000Y-80010000D03*
%TO.P,Q30,3*%
%TO.N,Net-(J6-Pin_8)*%
X158750000Y-80010000D03*
%TO.P,Q30,4*%
%TO.N,Net-(J6-Pin_7)*%
X158750000Y-77470000D03*
%TD*%
D12*
%TO.P,J4,1,Pin_1*%
%TO.N,Net-(J4-Pin_1)*%
X147320000Y-43180000D03*
D13*
%TO.P,J4,2,Pin_2*%
%TO.N,Net-(J4-Pin_2)*%
X147320000Y-45720000D03*
%TO.P,J4,3,Pin_3*%
%TO.N,Net-(J4-Pin_3)*%
X147320000Y-48260000D03*
%TO.P,J4,4,Pin_4*%
%TO.N,Net-(J4-Pin_4)*%
X147320000Y-50800000D03*
%TO.P,J4,5,Pin_5*%
%TO.N,Net-(J4-Pin_5)*%
X147320000Y-53340000D03*
%TO.P,J4,6,Pin_6*%
%TO.N,Net-(J4-Pin_6)*%
X147320000Y-55880000D03*
%TO.P,J4,7,Pin_7*%
%TO.N,Net-(J4-Pin_7)*%
X147320000Y-58420000D03*
%TO.P,J4,8,Pin_8*%
%TO.N,Net-(J4-Pin_8)*%
X147320000Y-60960000D03*
%TD*%
D12*
%TO.P,J2,1,Pin_1*%
%TO.N,Net-(J2-Pin_1)*%
X109220000Y-43180000D03*
D13*
%TO.P,J2,2,Pin_2*%
%TO.N,Net-(J2-Pin_2)*%
X109220000Y-45720000D03*
%TO.P,J2,3,Pin_3*%
%TO.N,Net-(J2-Pin_3)*%
X109220000Y-48260000D03*
%TO.P,J2,4,Pin_4*%
%TO.N,Net-(J2-Pin_4)*%
X109220000Y-50800000D03*
%TO.P,J2,5,Pin_5*%
%TO.N,Net-(J2-Pin_5)*%
X109220000Y-53340000D03*
%TO.P,J2,6,Pin_6*%
%TO.N,Net-(J2-Pin_6)*%
X109220000Y-55880000D03*
%TO.P,J2,7,Pin_7*%
%TO.N,Net-(J2-Pin_7)*%
X109220000Y-58420000D03*
%TO.P,J2,8,Pin_8*%
%TO.N,Net-(J2-Pin_8)*%
X109220000Y-60960000D03*
%TD*%
D12*
%TO.P,J7,1,Pin_1*%
%TO.N,Net-(J7-Pin_1)*%
X91440000Y-40640000D03*
D13*
%TO.P,J7,2,Pin_2*%
%TO.N,Net-(J7-Pin_2)*%
X93980000Y-40640000D03*
%TO.P,J7,3,Pin_3*%
%TO.N,Net-(J7-Pin_3)*%
X96520000Y-40640000D03*
%TO.P,J7,4,Pin_4*%
%TO.N,Net-(J7-Pin_4)*%
X99060000Y-40640000D03*
%TO.P,J7,5,Pin_5*%
%TO.N,Net-(J7-Pin_5)*%
X101600000Y-40640000D03*
%TD*%
D10*
%TO.P,Q7,1*%
%TO.N,Net-(J7-Pin_5)*%
X95250000Y-83820000D03*
D11*
%TO.P,Q7,2*%
%TO.N,Net-(J1-Pin_7)*%
X95250000Y-86360000D03*
%TO.P,Q7,3*%
%TO.N,Net-(Q1-Pad3)*%
X102870000Y-86360000D03*
%TO.P,Q7,4*%
%TO.N,Net-(J11-Pin_2)*%
X102870000Y-83820000D03*
%TD*%
D12*
%TO.P,J9,1,Pin_1*%
%TO.N,Net-(J7-Pin_1)*%
X162560000Y-55880000D03*
D13*
%TO.P,J9,2,Pin_2*%
%TO.N,Net-(J7-Pin_2)*%
X162560000Y-53340000D03*
%TO.P,J9,3,Pin_3*%
%TO.N,Net-(J8-Pin_2)*%
X162560000Y-50800000D03*
%TO.P,J9,4,Pin_4*%
%TO.N,Net-(J7-Pin_3)*%
X162560000Y-48260000D03*
%TO.P,J9,5,Pin_5*%
%TO.N,Net-(J7-Pin_4)*%
X162560000Y-45720000D03*
%TO.P,J9,6,Pin_6*%
%TO.N,Net-(J7-Pin_5)*%
X162560000Y-43180000D03*
%TD*%
D14*
%TO.P,J12,4,Pin_4*%
%TO.N,Net-(J12-Pin_4)*%
X156400000Y-104140000D03*
%TO.P,J12,3,Pin_3*%
%TO.N,Net-(J12-Pin_3)*%
X154400000Y-104140000D03*
%TO.P,J12,2,Pin_2*%
%TO.N,Net-(J12-Pin_2)*%
X152400000Y-104140000D03*
D15*
%TO.P,J12,1,Pin_1*%
%TO.N,Net-(J12-Pin_1)*%
X150400000Y-104140000D03*
%TD*%
%TO.P,J11,1,Pin_1*%
%TO.N,Net-(J11-Pin_1)*%
X108460000Y-104140000D03*
D14*
%TO.P,J11,2,Pin_2*%
%TO.N,Net-(J11-Pin_2)*%
X110460000Y-104140000D03*
%TO.P,J11,3,Pin_3*%
%TO.N,Net-(J11-Pin_3)*%
X112460000Y-104140000D03*
%TO.P,J11,4,Pin_4*%
%TO.N,Net-(J11-Pin_4)*%
X114460000Y-104140000D03*
%TO.P,J11,5,Pin_5*%
%TO.N,Net-(J11-Pin_5)*%
X116460000Y-104140000D03*
%TO.P,J11,6,Pin_6*%
%TO.N,Net-(J11-Pin_6)*%
X118460000Y-104140000D03*
%TO.P,J11,7,Pin_7*%
%TO.N,Net-(J11-Pin_7)*%
X120460000Y-104140000D03*
%TO.P,J11,8,Pin_8*%
%TO.N,Net-(J11-Pin_8)*%
X122460000Y-104140000D03*
%TO.P,J11,9,Pin_9*%
%TO.N,Net-(J11-Pin_9)*%
X124460000Y-104140000D03*
%TO.P,J11,10,Pin_10*%
%TO.N,Net-(J11-Pin_10)*%
X126460000Y-104140000D03*
%TO.P,J11,11,Pin_11*%
%TO.N,Net-(J11-Pin_11)*%
X128460000Y-104140000D03*
%TO.P,J11,12,Pin_12*%
%TO.N,Net-(J11-Pin_12)*%
X130460000Y-104140000D03*
%TO.P,J11,13,Pin_13*%
%TO.N,Net-(J11-Pin_13)*%
X132460000Y-104140000D03*
%TO.P,J11,14,Pin_14*%
%TO.N,Net-(J11-Pin_14)*%
X134460000Y-104140000D03*
%TO.P,J11,15,Pin_15*%
%TO.N,Net-(J11-Pin_15)*%
X136460000Y-104140000D03*
%TO.P,J11,16,Pin_16*%
%TO.N,Net-(J11-Pin_16)*%
X138460000Y-104140000D03*
%TO.P,J11,17,Pin_17*%
%TO.N,Net-(J11-Pin_17)*%
X140460000Y-104140000D03*
%TD*%
D15*
%TO.P,J10,1,Pin_1*%
%TO.N,Net-(J10-Pin_1)*%
X91440000Y-104140000D03*
D14*
%TO.P,J10,2,Pin_2*%
%TO.N,Net-(J10-Pin_2)*%
X93440000Y-104140000D03*
%TO.P,J10,3,Pin_3*%
%TO.N,Net-(J10-Pin_3)*%
X95440000Y-104140000D03*
%TO.P,J10,4,Pin_4*%
%TO.N,Net-(J10-Pin_4)*%
X97440000Y-104140000D03*
%TO.P,J10,5,Pin_5*%
%TO.N,Net-(J10-Pin_5)*%
X99440000Y-104140000D03*
%TD*%
D12*
%TO.P,J8,1,Pin_1*%
%TO.N,Net-(J7-Pin_1)*%
X129540000Y-40640000D03*
D13*
%TO.P,J8,2,Pin_2*%
%TO.N,Net-(J8-Pin_2)*%
X132080000Y-40640000D03*
%TO.P,J8,3,Pin_3*%
%TO.N,Net-(J7-Pin_3)*%
X134620000Y-40640000D03*
%TO.P,J8,4,Pin_4*%
%TO.N,Net-(J7-Pin_4)*%
X137160000Y-40640000D03*
%TO.P,J8,5,Pin_5*%
%TO.N,Net-(J7-Pin_5)*%
X139700000Y-40640000D03*
%TD*%
D10*
%TO.P,Q17,1*%
%TO.N,Net-(J7-Pin_5)*%
X130810000Y-45720000D03*
D11*
%TO.P,Q17,2*%
%TO.N,Net-(J3-Pin_1)*%
X130810000Y-48260000D03*
%TO.P,Q17,3*%
%TO.N,Net-(Q1-Pad3)*%
X138430000Y-48260000D03*
%TO.P,Q17,4*%
%TO.N,Net-(J11-Pin_12)*%
X138430000Y-45720000D03*
%TD*%
D10*
%TO.P,Q11,1*%
%TO.N,Net-(J7-Pin_5)*%
X113030000Y-58420000D03*
D11*
%TO.P,Q11,2*%
%TO.N,Net-(J2-Pin_3)*%
X113030000Y-60960000D03*
%TO.P,Q11,3*%
%TO.N,Net-(Q1-Pad3)*%
X120650000Y-60960000D03*
%TO.P,Q11,4*%
%TO.N,Net-(J11-Pin_6)*%
X120650000Y-58420000D03*
%TD*%
D10*
%TO.P,Q24,1*%
%TO.N,Net-(J7-Pin_5)*%
X130810000Y-90170000D03*
D11*
%TO.P,Q24,2*%
%TO.N,Net-(J3-Pin_8)*%
X130810000Y-92710000D03*
%TO.P,Q24,3*%
%TO.N,Net-(Q1-Pad3)*%
X138430000Y-92710000D03*
%TO.P,Q24,4*%
%TO.N,Net-(J12-Pin_2)*%
X138430000Y-90170000D03*
%TD*%
D10*
%TO.P,Q20,1*%
%TO.N,Net-(J7-Pin_5)*%
X130810000Y-64770000D03*
D11*
%TO.P,Q20,2*%
%TO.N,Net-(J3-Pin_4)*%
X130810000Y-67310000D03*
%TO.P,Q20,3*%
%TO.N,Net-(Q1-Pad3)*%
X138430000Y-67310000D03*
%TO.P,Q20,4*%
%TO.N,Net-(J11-Pin_15)*%
X138430000Y-64770000D03*
%TD*%
D10*
%TO.P,Q8,1*%
%TO.N,Net-(J7-Pin_5)*%
X95250000Y-90170000D03*
D11*
%TO.P,Q8,2*%
%TO.N,Net-(J1-Pin_8)*%
X95250000Y-92710000D03*
%TO.P,Q8,3*%
%TO.N,Net-(Q1-Pad3)*%
X102870000Y-92710000D03*
%TO.P,Q8,4*%
%TO.N,Net-(J11-Pin_3)*%
X102870000Y-90170000D03*
%TD*%
D10*
%TO.P,Q13,1*%
%TO.N,Net-(J7-Pin_5)*%
X113030000Y-71120000D03*
D11*
%TO.P,Q13,2*%
%TO.N,Net-(J2-Pin_5)*%
X113030000Y-73660000D03*
%TO.P,Q13,3*%
%TO.N,Net-(Q1-Pad3)*%
X120650000Y-73660000D03*
%TO.P,Q13,4*%
%TO.N,Net-(J11-Pin_8)*%
X120650000Y-71120000D03*
%TD*%
D10*
%TO.P,Q2,1*%
%TO.N,Net-(J7-Pin_5)*%
X95250000Y-52070000D03*
D11*
%TO.P,Q2,2*%
%TO.N,Net-(J1-Pin_2)*%
X95250000Y-54610000D03*
%TO.P,Q2,3*%
%TO.N,Net-(Q1-Pad3)*%
X102870000Y-54610000D03*
%TO.P,Q2,4*%
%TO.N,Net-(J10-Pin_2)*%
X102870000Y-52070000D03*
%TD*%
D10*
%TO.P,Q23,1*%
%TO.N,Net-(J7-Pin_5)*%
X130810000Y-83820000D03*
D11*
%TO.P,Q23,2*%
%TO.N,Net-(J3-Pin_7)*%
X130810000Y-86360000D03*
%TO.P,Q23,3*%
%TO.N,Net-(Q1-Pad3)*%
X138430000Y-86360000D03*
%TO.P,Q23,4*%
%TO.N,Net-(J12-Pin_1)*%
X138430000Y-83820000D03*
%TD*%
D10*
%TO.P,Q32,1*%
%TO.N,Net-(J7-Pin_5)*%
X151130000Y-90170000D03*
D11*
%TO.P,Q32,2*%
%TO.N,Net-(J4-Pin_8)*%
X151130000Y-92710000D03*
%TO.P,Q32,3*%
%TO.N,Net-(J6-Pin_12)*%
X158750000Y-92710000D03*
%TO.P,Q32,4*%
%TO.N,Net-(J6-Pin_11)*%
X158750000Y-90170000D03*
%TD*%
D10*
%TO.P,Q28,1*%
%TO.N,Net-(J7-Pin_5)*%
X151130000Y-64770000D03*
D11*
%TO.P,Q28,2*%
%TO.N,Net-(J4-Pin_4)*%
X151130000Y-67310000D03*
%TO.P,Q28,3*%
%TO.N,Net-(J6-Pin_4)*%
X158750000Y-67310000D03*
%TO.P,Q28,4*%
%TO.N,Net-(J6-Pin_3)*%
X158750000Y-64770000D03*
%TD*%
D10*
%TO.P,Q19,1*%
%TO.N,Net-(J7-Pin_5)*%
X130810000Y-58420000D03*
D11*
%TO.P,Q19,2*%
%TO.N,Net-(J3-Pin_3)*%
X130810000Y-60960000D03*
%TO.P,Q19,3*%
%TO.N,Net-(Q1-Pad3)*%
X138430000Y-60960000D03*
%TO.P,Q19,4*%
%TO.N,Net-(J11-Pin_14)*%
X138430000Y-58420000D03*
%TD*%
D10*
%TO.P,Q18,1*%
%TO.N,Net-(J7-Pin_5)*%
X130810000Y-52070000D03*
D11*
%TO.P,Q18,2*%
%TO.N,Net-(J3-Pin_2)*%
X130810000Y-54610000D03*
%TO.P,Q18,3*%
%TO.N,Net-(Q1-Pad3)*%
X138430000Y-54610000D03*
%TO.P,Q18,4*%
%TO.N,Net-(J11-Pin_13)*%
X138430000Y-52070000D03*
%TD*%
D10*
%TO.P,Q6,1*%
%TO.N,Net-(J7-Pin_5)*%
X95250000Y-77470000D03*
D11*
%TO.P,Q6,2*%
%TO.N,Net-(J1-Pin_6)*%
X95250000Y-80010000D03*
%TO.P,Q6,3*%
%TO.N,Net-(Q1-Pad3)*%
X102870000Y-80010000D03*
%TO.P,Q6,4*%
%TO.N,Net-(J11-Pin_1)*%
X102870000Y-77470000D03*
%TD*%
D10*
%TO.P,Q14,1*%
%TO.N,Net-(J7-Pin_5)*%
X113030000Y-77470000D03*
D11*
%TO.P,Q14,2*%
%TO.N,Net-(J2-Pin_6)*%
X113030000Y-80010000D03*
%TO.P,Q14,3*%
%TO.N,Net-(Q1-Pad3)*%
X120650000Y-80010000D03*
%TO.P,Q14,4*%
%TO.N,Net-(J11-Pin_9)*%
X120650000Y-77470000D03*
%TD*%
D10*
%TO.P,Q27,1*%
%TO.N,Net-(J7-Pin_5)*%
X151130000Y-58420000D03*
D11*
%TO.P,Q27,2*%
%TO.N,Net-(J4-Pin_3)*%
X151130000Y-60960000D03*
%TO.P,Q27,3*%
%TO.N,Net-(J6-Pin_2)*%
X158750000Y-60960000D03*
%TO.P,Q27,4*%
%TO.N,Net-(J6-Pin_1)*%
X158750000Y-58420000D03*
%TD*%
D10*
%TO.P,Q25,1*%
%TO.N,Net-(J7-Pin_5)*%
X151130000Y-45720000D03*
D11*
%TO.P,Q25,2*%
%TO.N,Net-(J4-Pin_1)*%
X151130000Y-48260000D03*
%TO.P,Q25,3*%
%TO.N,Net-(Q1-Pad3)*%
X158750000Y-48260000D03*
%TO.P,Q25,4*%
%TO.N,Net-(J12-Pin_3)*%
X158750000Y-45720000D03*
%TD*%
D10*
%TO.P,Q5,1*%
%TO.N,Net-(J7-Pin_5)*%
X95250000Y-71120000D03*
D11*
%TO.P,Q5,2*%
%TO.N,Net-(J1-Pin_5)*%
X95250000Y-73660000D03*
%TO.P,Q5,3*%
%TO.N,Net-(Q1-Pad3)*%
X102870000Y-73660000D03*
%TO.P,Q5,4*%
%TO.N,Net-(J10-Pin_5)*%
X102870000Y-71120000D03*
%TD*%
D10*
%TO.P,Q29,1*%
%TO.N,Net-(J7-Pin_5)*%
X151130000Y-71120000D03*
D11*
%TO.P,Q29,2*%
%TO.N,Net-(J4-Pin_5)*%
X151130000Y-73660000D03*
%TO.P,Q29,3*%
%TO.N,Net-(J6-Pin_6)*%
X158750000Y-73660000D03*
%TO.P,Q29,4*%
%TO.N,Net-(J6-Pin_5)*%
X158750000Y-71120000D03*
%TD*%
D10*
%TO.P,Q21,1*%
%TO.N,Net-(J7-Pin_5)*%
X130810000Y-71120000D03*
D11*
%TO.P,Q21,2*%
%TO.N,Net-(J3-Pin_5)*%
X130810000Y-73660000D03*
%TO.P,Q21,3*%
%TO.N,Net-(Q1-Pad3)*%
X138430000Y-73660000D03*
%TO.P,Q21,4*%
%TO.N,Net-(J11-Pin_16)*%
X138430000Y-71120000D03*
%TD*%
D10*
%TO.P,Q15,1*%
%TO.N,Net-(J7-Pin_5)*%
X113030000Y-83820000D03*
D11*
%TO.P,Q15,2*%
%TO.N,Net-(J2-Pin_7)*%
X113030000Y-86360000D03*
%TO.P,Q15,3*%
%TO.N,Net-(Q1-Pad3)*%
X120650000Y-86360000D03*
%TO.P,Q15,4*%
%TO.N,Net-(J11-Pin_10)*%
X120650000Y-83820000D03*
%TD*%
D10*
%TO.P,Q12,1*%
%TO.N,Net-(J7-Pin_5)*%
X113030000Y-64770000D03*
D11*
%TO.P,Q12,2*%
%TO.N,Net-(J2-Pin_4)*%
X113030000Y-67310000D03*
%TO.P,Q12,3*%
%TO.N,Net-(Q1-Pad3)*%
X120650000Y-67310000D03*
%TO.P,Q12,4*%
%TO.N,Net-(J11-Pin_7)*%
X120650000Y-64770000D03*
%TD*%
D10*
%TO.P,Q4,1*%
%TO.N,Net-(J7-Pin_5)*%
X95250000Y-64770000D03*
D11*
%TO.P,Q4,2*%
%TO.N,Net-(J1-Pin_4)*%
X95250000Y-67310000D03*
%TO.P,Q4,3*%
%TO.N,Net-(Q1-Pad3)*%
X102870000Y-67310000D03*
%TO.P,Q4,4*%
%TO.N,Net-(J10-Pin_4)*%
X102870000Y-64770000D03*
%TD*%
D10*
%TO.P,Q31,1*%
%TO.N,Net-(J7-Pin_5)*%
X151130000Y-83820000D03*
D11*
%TO.P,Q31,2*%
%TO.N,Net-(J4-Pin_7)*%
X151130000Y-86360000D03*
%TO.P,Q31,3*%
%TO.N,Net-(J6-Pin_10)*%
X158750000Y-86360000D03*
%TO.P,Q31,4*%
%TO.N,Net-(J6-Pin_9)*%
X158750000Y-83820000D03*
%TD*%
D10*
%TO.P,Q26,1*%
%TO.N,Net-(J7-Pin_5)*%
X151130000Y-52070000D03*
D11*
%TO.P,Q26,2*%
%TO.N,Net-(J4-Pin_2)*%
X151130000Y-54610000D03*
%TO.P,Q26,3*%
%TO.N,Net-(Q1-Pad3)*%
X158750000Y-54610000D03*
%TO.P,Q26,4*%
%TO.N,Net-(J12-Pin_4)*%
X158750000Y-52070000D03*
%TD*%
D10*
%TO.P,Q22,1*%
%TO.N,Net-(J7-Pin_5)*%
X130810000Y-77470000D03*
D11*
%TO.P,Q22,2*%
%TO.N,Net-(J3-Pin_6)*%
X130810000Y-80010000D03*
%TO.P,Q22,3*%
%TO.N,Net-(Q1-Pad3)*%
X138430000Y-80010000D03*
%TO.P,Q22,4*%
%TO.N,Net-(J11-Pin_17)*%
X138430000Y-77470000D03*
%TD*%
D10*
%TO.P,Q9,1*%
%TO.N,Net-(J7-Pin_5)*%
X113030000Y-45720000D03*
D11*
%TO.P,Q9,2*%
%TO.N,Net-(J2-Pin_1)*%
X113030000Y-48260000D03*
%TO.P,Q9,3*%
%TO.N,Net-(Q1-Pad3)*%
X120650000Y-48260000D03*
%TO.P,Q9,4*%
%TO.N,Net-(J11-Pin_4)*%
X120650000Y-45720000D03*
%TD*%
D10*
%TO.P,Q16,1*%
%TO.N,Net-(J7-Pin_5)*%
X113030000Y-90170000D03*
D11*
%TO.P,Q16,2*%
%TO.N,Net-(J2-Pin_8)*%
X113030000Y-92710000D03*
%TO.P,Q16,3*%
%TO.N,Net-(Q1-Pad3)*%
X120650000Y-92710000D03*
%TO.P,Q16,4*%
%TO.N,Net-(J11-Pin_11)*%
X120650000Y-90170000D03*
%TD*%
D10*
%TO.P,Q3,1*%
%TO.N,Net-(J7-Pin_5)*%
X95250000Y-58420000D03*
D11*
%TO.P,Q3,2*%
%TO.N,Net-(J1-Pin_3)*%
X95250000Y-60960000D03*
%TO.P,Q3,3*%
%TO.N,Net-(Q1-Pad3)*%
X102870000Y-60960000D03*
%TO.P,Q3,4*%
%TO.N,Net-(J10-Pin_3)*%
X102870000Y-58420000D03*
%TD*%
D10*
%TO.P,Q1,1*%
%TO.N,Net-(J7-Pin_5)*%
X95250000Y-45720000D03*
D11*
%TO.P,Q1,2*%
%TO.N,Net-(J1-Pin_1)*%
X95250000Y-48260000D03*
%TO.P,Q1,3*%
%TO.N,Net-(Q1-Pad3)*%
X102870000Y-48260000D03*
%TO.P,Q1,4*%
%TO.N,Net-(J10-Pin_1)*%
X102870000Y-45720000D03*
%TD*%
D10*
%TO.P,Q10,1*%
%TO.N,Net-(J7-Pin_5)*%
X113030000Y-52070000D03*
D11*
%TO.P,Q10,2*%
%TO.N,Net-(J2-Pin_2)*%
X113030000Y-54610000D03*
%TO.P,Q10,3*%
%TO.N,Net-(Q1-Pad3)*%
X120650000Y-54610000D03*
%TO.P,Q10,4*%
%TO.N,Net-(J11-Pin_5)*%
X120650000Y-52070000D03*
%TD*%
D12*
%TO.P,J1,1,Pin_1*%
%TO.N,Net-(J1-Pin_1)*%
X86360000Y-43180000D03*
D13*
%TO.P,J1,2,Pin_2*%
%TO.N,Net-(J1-Pin_2)*%
X86360000Y-45720000D03*
%TO.P,J1,3,Pin_3*%
%TO.N,Net-(J1-Pin_3)*%
X86360000Y-48260000D03*
%TO.P,J1,4,Pin_4*%
%TO.N,Net-(J1-Pin_4)*%
X86360000Y-50800000D03*
%TO.P,J1,5,Pin_5*%
%TO.N,Net-(J1-Pin_5)*%
X86360000Y-53340000D03*
%TO.P,J1,6,Pin_6*%
%TO.N,Net-(J1-Pin_6)*%
X86360000Y-55880000D03*
%TO.P,J1,7,Pin_7*%
%TO.N,Net-(J1-Pin_7)*%
X86360000Y-58420000D03*
%TO.P,J1,8,Pin_8*%
%TO.N,Net-(J1-Pin_8)*%
X86360000Y-60960000D03*
%TD*%
D12*
%TO.P,J5,1,Pin_1*%
%TO.N,Net-(J10-Pin_1)*%
X91440000Y-99060000D03*
D13*
%TO.P,J5,2,Pin_2*%
%TO.N,Net-(J10-Pin_2)*%
X93980000Y-99060000D03*
%TO.P,J5,3,Pin_3*%
%TO.N,Net-(J10-Pin_3)*%
X96520000Y-99060000D03*
%TO.P,J5,4,Pin_4*%
%TO.N,Net-(J10-Pin_4)*%
X99060000Y-99060000D03*
%TO.P,J5,5,Pin_5*%
%TO.N,Net-(J10-Pin_5)*%
X101600000Y-99060000D03*
%TO.P,J5,6,Pin_6*%
%TO.N,Net-(J11-Pin_1)*%
X104140000Y-99060000D03*
%TO.P,J5,7,Pin_7*%
%TO.N,Net-(J11-Pin_2)*%
X106680000Y-99060000D03*
%TO.P,J5,8,Pin_8*%
%TO.N,Net-(J11-Pin_3)*%
X109220000Y-99060000D03*
%TO.P,J5,9,Pin_9*%
%TO.N,Net-(J11-Pin_4)*%
X111760000Y-99060000D03*
%TO.P,J5,10,Pin_10*%
%TO.N,Net-(J11-Pin_5)*%
X114300000Y-99060000D03*
%TO.P,J5,11,Pin_11*%
%TO.N,Net-(J11-Pin_6)*%
X116840000Y-99060000D03*
%TO.P,J5,12,Pin_12*%
%TO.N,Net-(J11-Pin_7)*%
X119380000Y-99060000D03*
%TO.P,J5,13,Pin_13*%
%TO.N,Net-(J11-Pin_8)*%
X121920000Y-99060000D03*
%TO.P,J5,14,Pin_14*%
%TO.N,Net-(J11-Pin_9)*%
X124460000Y-99060000D03*
%TO.P,J5,15,Pin_15*%
%TO.N,Net-(J11-Pin_10)*%
X127000000Y-99060000D03*
%TO.P,J5,16,Pin_16*%
%TO.N,Net-(J11-Pin_11)*%
X129540000Y-99060000D03*
%TO.P,J5,17,Pin_17*%
%TO.N,Net-(J11-Pin_12)*%
X132080000Y-99060000D03*
%TO.P,J5,18,Pin_18*%
%TO.N,Net-(J11-Pin_13)*%
X134620000Y-99060000D03*
%TO.P,J5,19,Pin_19*%
%TO.N,Net-(J11-Pin_14)*%
X137160000Y-99060000D03*
%TO.P,J5,20,Pin_20*%
%TO.N,Net-(J11-Pin_15)*%
X139700000Y-99060000D03*
%TO.P,J5,21,Pin_21*%
%TO.N,Net-(J11-Pin_16)*%
X142240000Y-99060000D03*
%TO.P,J5,22,Pin_22*%
%TO.N,Net-(J11-Pin_17)*%
X144780000Y-99060000D03*
%TO.P,J5,23,Pin_23*%
%TO.N,Net-(J12-Pin_1)*%
X147320000Y-99060000D03*
%TO.P,J5,24,Pin_24*%
%TO.N,Net-(J12-Pin_2)*%
X149860000Y-99060000D03*
%TO.P,J5,25,Pin_25*%
%TO.N,Net-(J12-Pin_3)*%
X152400000Y-99060000D03*
%TO.P,J5,26,Pin_26*%
%TO.N,Net-(J12-Pin_4)*%
X154940000Y-99060000D03*
%TD*%
D12*
%TO.P,J6,1,Pin_1*%
%TO.N,Net-(J6-Pin_1)*%
X162560000Y-60960000D03*
D13*
%TO.P,J6,2,Pin_2*%
%TO.N,Net-(J6-Pin_2)*%
X162560000Y-63500000D03*
%TO.P,J6,3,Pin_3*%
%TO.N,Net-(J6-Pin_3)*%
X162560000Y-66040000D03*
%TO.P,J6,4,Pin_4*%
%TO.N,Net-(J6-Pin_4)*%
X162560000Y-68580000D03*
%TO.P,J6,5,Pin_5*%
%TO.N,Net-(J6-Pin_5)*%
X162560000Y-71120000D03*
%TO.P,J6,6,Pin_6*%
%TO.N,Net-(J6-Pin_6)*%
X162560000Y-73660000D03*
%TO.P,J6,7,Pin_7*%
%TO.N,Net-(J6-Pin_7)*%
X162560000Y-76200000D03*
%TO.P,J6,8,Pin_8*%
%TO.N,Net-(J6-Pin_8)*%
X162560000Y-78740000D03*
%TO.P,J6,9,Pin_9*%
%TO.N,Net-(J6-Pin_9)*%
X162560000Y-81280000D03*
%TO.P,J6,10,Pin_10*%
%TO.N,Net-(J6-Pin_10)*%
X162560000Y-83820000D03*
%TO.P,J6,11,Pin_11*%
%TO.N,Net-(J6-Pin_11)*%
X162560000Y-86360000D03*
%TO.P,J6,12,Pin_12*%
%TO.N,Net-(J6-Pin_12)*%
X162560000Y-88900000D03*
%TD*%
D12*
%TO.P,J3,1,Pin_1*%
%TO.N,Net-(J3-Pin_1)*%
X124460000Y-43180000D03*
D13*
%TO.P,J3,2,Pin_2*%
%TO.N,Net-(J3-Pin_2)*%
X124460000Y-45720000D03*
%TO.P,J3,3,Pin_3*%
%TO.N,Net-(J3-Pin_3)*%
X124460000Y-48260000D03*
%TO.P,J3,4,Pin_4*%
%TO.N,Net-(J3-Pin_4)*%
X124460000Y-50800000D03*
%TO.P,J3,5,Pin_5*%
%TO.N,Net-(J3-Pin_5)*%
X124460000Y-53340000D03*
%TO.P,J3,6,Pin_6*%
%TO.N,Net-(J3-Pin_6)*%
X124460000Y-55880000D03*
%TO.P,J3,7,Pin_7*%
%TO.N,Net-(J3-Pin_7)*%
X124460000Y-58420000D03*
%TO.P,J3,8,Pin_8*%
%TO.N,Net-(J3-Pin_8)*%
X124460000Y-60960000D03*
%TD*%
D16*
%TO.N,Net-(J4-Pin_8)*%
X147320000Y-60960000D02*
X149410000Y-63050000D01*
X149410000Y-63050000D02*
X149410000Y-90990000D01*
X149410000Y-90990000D02*
X151130000Y-92710000D01*
%TO.N,Net-(J4-Pin_7)*%
X147320000Y-58420000D02*
X149860000Y-60960000D01*
X149860000Y-60960000D02*
X149860000Y-85090000D01*
X149860000Y-85090000D02*
X151130000Y-86360000D01*
%TO.N,Net-(J2-Pin_8)*%
X109220000Y-60960000D02*
X109945000Y-61685000D01*
X109945000Y-61685000D02*
X109945000Y-89625000D01*
X109945000Y-89625000D02*
X113030000Y-92710000D01*
%TO.N,Net-(Q1-Pad3)*%
X102870000Y-92710000D02*
X104140000Y-93980000D01*
X104140000Y-93980000D02*
X119380000Y-93980000D01*
X119380000Y-93980000D02*
X120650000Y-92710000D01*
%TO.N,Net-(J2-Pin_7)*%
X110395000Y-84995000D02*
X111760000Y-86360000D01*
X110395000Y-59595000D02*
X110395000Y-84995000D01*
X109220000Y-58420000D02*
X110395000Y-59595000D01*
X111760000Y-86360000D02*
X113030000Y-86360000D01*
%TO.N,Net-(J7-Pin_5)*%
X102775000Y-39465000D02*
X101600000Y-40640000D01*
X102775000Y-39465000D02*
X138525000Y-39465000D01*
X138525000Y-39465000D02*
X139700000Y-40640000D01*
%TO.N,Net-(J7-Pin_2)*%
X162560000Y-53340000D02*
X160020000Y-50800000D01*
X93980000Y-40640000D02*
X95345000Y-42005000D01*
X95345000Y-42005000D02*
X156385574Y-42005000D01*
X156385574Y-42005000D02*
X160020000Y-45639426D01*
X160020000Y-45639426D02*
X160020000Y-50800000D01*
%TO.N,Net-(Q1-Pad3)*%
X120650000Y-92710000D02*
X121605000Y-91755000D01*
X121605000Y-91755000D02*
X137475000Y-91755000D01*
X137475000Y-91755000D02*
X138430000Y-92710000D01*
X158750000Y-54610000D02*
X157795000Y-53655000D01*
X157795000Y-53655000D02*
X149545000Y-53655000D01*
X149545000Y-53655000D02*
X148590000Y-54610000D01*
X148590000Y-54610000D02*
X138430000Y-54610000D01*
%TD*%
M02*
