%TF.GenerationSoftware,KiCad,Pcbnew,7.0.1*%
%TF.CreationDate,2023-11-08T17:30:50+01:00*%
%TF.ProjectId,keyboard,6b657962-6f61-4726-942e-6b696361645f,rev?*%
%TF.SameCoordinates,Original*%
%TF.FileFunction,Drillmap*%
%TF.FilePolarity,Positive*%
%FSLAX45Y45*%
G04 Gerber Fmt 4.5, Leading zero omitted, Abs format (unit mm)*
G04 Created by KiCad (PCBNEW 7.0.1) date 2023-11-08 17:30:50*
%MOMM*%
%LPD*%
G01*
G04 APERTURE LIST*
%ADD10C,0.100000*%
%ADD11C,0.200000*%
G04 APERTURE END LIST*
D10*
X8382000Y-3700000D02*
X16700000Y-3700000D01*
X16700000Y-13208000D01*
X8382000Y-13208000D01*
X8382000Y-3700000D01*
D11*
X8624619Y-13525524D02*
X8624619Y-13325524D01*
X8624619Y-13325524D02*
X8672238Y-13325524D01*
X8672238Y-13325524D02*
X8700810Y-13335048D01*
X8700810Y-13335048D02*
X8719857Y-13354095D01*
X8719857Y-13354095D02*
X8729381Y-13373143D01*
X8729381Y-13373143D02*
X8738905Y-13411238D01*
X8738905Y-13411238D02*
X8738905Y-13439809D01*
X8738905Y-13439809D02*
X8729381Y-13477905D01*
X8729381Y-13477905D02*
X8719857Y-13496952D01*
X8719857Y-13496952D02*
X8700810Y-13516000D01*
X8700810Y-13516000D02*
X8672238Y-13525524D01*
X8672238Y-13525524D02*
X8624619Y-13525524D01*
X8824619Y-13525524D02*
X8824619Y-13392190D01*
X8824619Y-13430286D02*
X8834143Y-13411238D01*
X8834143Y-13411238D02*
X8843667Y-13401714D01*
X8843667Y-13401714D02*
X8862714Y-13392190D01*
X8862714Y-13392190D02*
X8881762Y-13392190D01*
X8948429Y-13525524D02*
X8948429Y-13392190D01*
X8948429Y-13325524D02*
X8938905Y-13335048D01*
X8938905Y-13335048D02*
X8948429Y-13344571D01*
X8948429Y-13344571D02*
X8957952Y-13335048D01*
X8957952Y-13335048D02*
X8948429Y-13325524D01*
X8948429Y-13325524D02*
X8948429Y-13344571D01*
X9072238Y-13525524D02*
X9053190Y-13516000D01*
X9053190Y-13516000D02*
X9043667Y-13496952D01*
X9043667Y-13496952D02*
X9043667Y-13325524D01*
X9177000Y-13525524D02*
X9157952Y-13516000D01*
X9157952Y-13516000D02*
X9148429Y-13496952D01*
X9148429Y-13496952D02*
X9148429Y-13325524D01*
X9405571Y-13525524D02*
X9405571Y-13325524D01*
X9405571Y-13325524D02*
X9472238Y-13468381D01*
X9472238Y-13468381D02*
X9538905Y-13325524D01*
X9538905Y-13325524D02*
X9538905Y-13525524D01*
X9719857Y-13525524D02*
X9719857Y-13420762D01*
X9719857Y-13420762D02*
X9710333Y-13401714D01*
X9710333Y-13401714D02*
X9691286Y-13392190D01*
X9691286Y-13392190D02*
X9653190Y-13392190D01*
X9653190Y-13392190D02*
X9634143Y-13401714D01*
X9719857Y-13516000D02*
X9700810Y-13525524D01*
X9700810Y-13525524D02*
X9653190Y-13525524D01*
X9653190Y-13525524D02*
X9634143Y-13516000D01*
X9634143Y-13516000D02*
X9624619Y-13496952D01*
X9624619Y-13496952D02*
X9624619Y-13477905D01*
X9624619Y-13477905D02*
X9634143Y-13458857D01*
X9634143Y-13458857D02*
X9653190Y-13449333D01*
X9653190Y-13449333D02*
X9700810Y-13449333D01*
X9700810Y-13449333D02*
X9719857Y-13439809D01*
X9815095Y-13392190D02*
X9815095Y-13592190D01*
X9815095Y-13401714D02*
X9834143Y-13392190D01*
X9834143Y-13392190D02*
X9872238Y-13392190D01*
X9872238Y-13392190D02*
X9891286Y-13401714D01*
X9891286Y-13401714D02*
X9900810Y-13411238D01*
X9900810Y-13411238D02*
X9910333Y-13430286D01*
X9910333Y-13430286D02*
X9910333Y-13487428D01*
X9910333Y-13487428D02*
X9900810Y-13506476D01*
X9900810Y-13506476D02*
X9891286Y-13516000D01*
X9891286Y-13516000D02*
X9872238Y-13525524D01*
X9872238Y-13525524D02*
X9834143Y-13525524D01*
X9834143Y-13525524D02*
X9815095Y-13516000D01*
X9996048Y-13506476D02*
X10005571Y-13516000D01*
X10005571Y-13516000D02*
X9996048Y-13525524D01*
X9996048Y-13525524D02*
X9986524Y-13516000D01*
X9986524Y-13516000D02*
X9996048Y-13506476D01*
X9996048Y-13506476D02*
X9996048Y-13525524D01*
X9996048Y-13401714D02*
X10005571Y-13411238D01*
X10005571Y-13411238D02*
X9996048Y-13420762D01*
X9996048Y-13420762D02*
X9986524Y-13411238D01*
X9986524Y-13411238D02*
X9996048Y-13401714D01*
X9996048Y-13401714D02*
X9996048Y-13420762D01*
M02*
