%TF.GenerationSoftware,KiCad,Pcbnew,7.0.1*%
%TF.CreationDate,2023-11-08T17:30:37+01:00*%
%TF.ProjectId,keyboard,6b657962-6f61-4726-942e-6b696361645f,rev?*%
%TF.SameCoordinates,Original*%
%TF.FileFunction,Soldermask,Bot*%
%TF.FilePolarity,Negative*%
%FSLAX46Y46*%
G04 Gerber Fmt 4.6, Leading zero omitted, Abs format (unit mm)*
G04 Created by KiCad (PCBNEW 7.0.1) date 2023-11-08 17:30:37*
%MOMM*%
%LPD*%
G01*
G04 APERTURE LIST*
G04 Aperture macros list*
%AMRoundRect*
0 Rectangle with rounded corners*
0 $1 Rounding radius*
0 $2 $3 $4 $5 $6 $7 $8 $9 X,Y pos of 4 corners*
0 Add a 4 corners polygon primitive as box body*
4,1,4,$2,$3,$4,$5,$6,$7,$8,$9,$2,$3,0*
0 Add four circle primitives for the rounded corners*
1,1,$1+$1,$2,$3*
1,1,$1+$1,$4,$5*
1,1,$1+$1,$6,$7*
1,1,$1+$1,$8,$9*
0 Add four rect primitives between the rounded corners*
20,1,$1+$1,$2,$3,$4,$5,0*
20,1,$1+$1,$4,$5,$6,$7,0*
20,1,$1+$1,$6,$7,$8,$9,0*
20,1,$1+$1,$8,$9,$2,$3,0*%
G04 Aperture macros list end*
%ADD10RoundRect,0.102000X-0.630000X-0.630000X0.630000X-0.630000X0.630000X0.630000X-0.630000X0.630000X0*%
%ADD11C,1.464000*%
%ADD12R,1.700000X1.700000*%
%ADD13O,1.700000X1.700000*%
%ADD14O,1.350000X1.350000*%
%ADD15R,1.350000X1.350000*%
G04 APERTURE END LIST*
D10*
%TO.C,Q30*%
X151130000Y-77470000D03*
D11*
X151130000Y-80010000D03*
X158750000Y-80010000D03*
X158750000Y-77470000D03*
%TD*%
D12*
%TO.C,J4*%
X147320000Y-43180000D03*
D13*
X147320000Y-45720000D03*
X147320000Y-48260000D03*
X147320000Y-50800000D03*
X147320000Y-53340000D03*
X147320000Y-55880000D03*
X147320000Y-58420000D03*
X147320000Y-60960000D03*
%TD*%
D12*
%TO.C,J2*%
X109220000Y-43180000D03*
D13*
X109220000Y-45720000D03*
X109220000Y-48260000D03*
X109220000Y-50800000D03*
X109220000Y-53340000D03*
X109220000Y-55880000D03*
X109220000Y-58420000D03*
X109220000Y-60960000D03*
%TD*%
D12*
%TO.C,J7*%
X91440000Y-40640000D03*
D13*
X93980000Y-40640000D03*
X96520000Y-40640000D03*
X99060000Y-40640000D03*
X101600000Y-40640000D03*
%TD*%
D10*
%TO.C,Q7*%
X95250000Y-83820000D03*
D11*
X95250000Y-86360000D03*
X102870000Y-86360000D03*
X102870000Y-83820000D03*
%TD*%
D12*
%TO.C,J9*%
X162560000Y-55880000D03*
D13*
X162560000Y-53340000D03*
X162560000Y-50800000D03*
X162560000Y-48260000D03*
X162560000Y-45720000D03*
X162560000Y-43180000D03*
%TD*%
D14*
%TO.C,J12*%
X156400000Y-104140000D03*
X154400000Y-104140000D03*
X152400000Y-104140000D03*
D15*
X150400000Y-104140000D03*
%TD*%
%TO.C,J11*%
X108460000Y-104140000D03*
D14*
X110460000Y-104140000D03*
X112460000Y-104140000D03*
X114460000Y-104140000D03*
X116460000Y-104140000D03*
X118460000Y-104140000D03*
X120460000Y-104140000D03*
X122460000Y-104140000D03*
X124460000Y-104140000D03*
X126460000Y-104140000D03*
X128460000Y-104140000D03*
X130460000Y-104140000D03*
X132460000Y-104140000D03*
X134460000Y-104140000D03*
X136460000Y-104140000D03*
X138460000Y-104140000D03*
X140460000Y-104140000D03*
%TD*%
D15*
%TO.C,J10*%
X91440000Y-104140000D03*
D14*
X93440000Y-104140000D03*
X95440000Y-104140000D03*
X97440000Y-104140000D03*
X99440000Y-104140000D03*
%TD*%
D12*
%TO.C,J8*%
X129540000Y-40640000D03*
D13*
X132080000Y-40640000D03*
X134620000Y-40640000D03*
X137160000Y-40640000D03*
X139700000Y-40640000D03*
%TD*%
D10*
%TO.C,Q17*%
X130810000Y-45720000D03*
D11*
X130810000Y-48260000D03*
X138430000Y-48260000D03*
X138430000Y-45720000D03*
%TD*%
D10*
%TO.C,Q11*%
X113030000Y-58420000D03*
D11*
X113030000Y-60960000D03*
X120650000Y-60960000D03*
X120650000Y-58420000D03*
%TD*%
D10*
%TO.C,Q24*%
X130810000Y-90170000D03*
D11*
X130810000Y-92710000D03*
X138430000Y-92710000D03*
X138430000Y-90170000D03*
%TD*%
D10*
%TO.C,Q20*%
X130810000Y-64770000D03*
D11*
X130810000Y-67310000D03*
X138430000Y-67310000D03*
X138430000Y-64770000D03*
%TD*%
D10*
%TO.C,Q8*%
X95250000Y-90170000D03*
D11*
X95250000Y-92710000D03*
X102870000Y-92710000D03*
X102870000Y-90170000D03*
%TD*%
D10*
%TO.C,Q13*%
X113030000Y-71120000D03*
D11*
X113030000Y-73660000D03*
X120650000Y-73660000D03*
X120650000Y-71120000D03*
%TD*%
D10*
%TO.C,Q2*%
X95250000Y-52070000D03*
D11*
X95250000Y-54610000D03*
X102870000Y-54610000D03*
X102870000Y-52070000D03*
%TD*%
D10*
%TO.C,Q23*%
X130810000Y-83820000D03*
D11*
X130810000Y-86360000D03*
X138430000Y-86360000D03*
X138430000Y-83820000D03*
%TD*%
D10*
%TO.C,Q32*%
X151130000Y-90170000D03*
D11*
X151130000Y-92710000D03*
X158750000Y-92710000D03*
X158750000Y-90170000D03*
%TD*%
D10*
%TO.C,Q28*%
X151130000Y-64770000D03*
D11*
X151130000Y-67310000D03*
X158750000Y-67310000D03*
X158750000Y-64770000D03*
%TD*%
D10*
%TO.C,Q19*%
X130810000Y-58420000D03*
D11*
X130810000Y-60960000D03*
X138430000Y-60960000D03*
X138430000Y-58420000D03*
%TD*%
D10*
%TO.C,Q18*%
X130810000Y-52070000D03*
D11*
X130810000Y-54610000D03*
X138430000Y-54610000D03*
X138430000Y-52070000D03*
%TD*%
D10*
%TO.C,Q6*%
X95250000Y-77470000D03*
D11*
X95250000Y-80010000D03*
X102870000Y-80010000D03*
X102870000Y-77470000D03*
%TD*%
D10*
%TO.C,Q14*%
X113030000Y-77470000D03*
D11*
X113030000Y-80010000D03*
X120650000Y-80010000D03*
X120650000Y-77470000D03*
%TD*%
D10*
%TO.C,Q27*%
X151130000Y-58420000D03*
D11*
X151130000Y-60960000D03*
X158750000Y-60960000D03*
X158750000Y-58420000D03*
%TD*%
D10*
%TO.C,Q25*%
X151130000Y-45720000D03*
D11*
X151130000Y-48260000D03*
X158750000Y-48260000D03*
X158750000Y-45720000D03*
%TD*%
D10*
%TO.C,Q5*%
X95250000Y-71120000D03*
D11*
X95250000Y-73660000D03*
X102870000Y-73660000D03*
X102870000Y-71120000D03*
%TD*%
D10*
%TO.C,Q29*%
X151130000Y-71120000D03*
D11*
X151130000Y-73660000D03*
X158750000Y-73660000D03*
X158750000Y-71120000D03*
%TD*%
D10*
%TO.C,Q21*%
X130810000Y-71120000D03*
D11*
X130810000Y-73660000D03*
X138430000Y-73660000D03*
X138430000Y-71120000D03*
%TD*%
D10*
%TO.C,Q15*%
X113030000Y-83820000D03*
D11*
X113030000Y-86360000D03*
X120650000Y-86360000D03*
X120650000Y-83820000D03*
%TD*%
D10*
%TO.C,Q12*%
X113030000Y-64770000D03*
D11*
X113030000Y-67310000D03*
X120650000Y-67310000D03*
X120650000Y-64770000D03*
%TD*%
D10*
%TO.C,Q4*%
X95250000Y-64770000D03*
D11*
X95250000Y-67310000D03*
X102870000Y-67310000D03*
X102870000Y-64770000D03*
%TD*%
D10*
%TO.C,Q31*%
X151130000Y-83820000D03*
D11*
X151130000Y-86360000D03*
X158750000Y-86360000D03*
X158750000Y-83820000D03*
%TD*%
D10*
%TO.C,Q26*%
X151130000Y-52070000D03*
D11*
X151130000Y-54610000D03*
X158750000Y-54610000D03*
X158750000Y-52070000D03*
%TD*%
D10*
%TO.C,Q22*%
X130810000Y-77470000D03*
D11*
X130810000Y-80010000D03*
X138430000Y-80010000D03*
X138430000Y-77470000D03*
%TD*%
D10*
%TO.C,Q9*%
X113030000Y-45720000D03*
D11*
X113030000Y-48260000D03*
X120650000Y-48260000D03*
X120650000Y-45720000D03*
%TD*%
D10*
%TO.C,Q16*%
X113030000Y-90170000D03*
D11*
X113030000Y-92710000D03*
X120650000Y-92710000D03*
X120650000Y-90170000D03*
%TD*%
D10*
%TO.C,Q3*%
X95250000Y-58420000D03*
D11*
X95250000Y-60960000D03*
X102870000Y-60960000D03*
X102870000Y-58420000D03*
%TD*%
D10*
%TO.C,Q1*%
X95250000Y-45720000D03*
D11*
X95250000Y-48260000D03*
X102870000Y-48260000D03*
X102870000Y-45720000D03*
%TD*%
D10*
%TO.C,Q10*%
X113030000Y-52070000D03*
D11*
X113030000Y-54610000D03*
X120650000Y-54610000D03*
X120650000Y-52070000D03*
%TD*%
D12*
%TO.C,J1*%
X86360000Y-43180000D03*
D13*
X86360000Y-45720000D03*
X86360000Y-48260000D03*
X86360000Y-50800000D03*
X86360000Y-53340000D03*
X86360000Y-55880000D03*
X86360000Y-58420000D03*
X86360000Y-60960000D03*
%TD*%
D12*
%TO.C,J5*%
X91440000Y-99060000D03*
D13*
X93980000Y-99060000D03*
X96520000Y-99060000D03*
X99060000Y-99060000D03*
X101600000Y-99060000D03*
X104140000Y-99060000D03*
X106680000Y-99060000D03*
X109220000Y-99060000D03*
X111760000Y-99060000D03*
X114300000Y-99060000D03*
X116840000Y-99060000D03*
X119380000Y-99060000D03*
X121920000Y-99060000D03*
X124460000Y-99060000D03*
X127000000Y-99060000D03*
X129540000Y-99060000D03*
X132080000Y-99060000D03*
X134620000Y-99060000D03*
X137160000Y-99060000D03*
X139700000Y-99060000D03*
X142240000Y-99060000D03*
X144780000Y-99060000D03*
X147320000Y-99060000D03*
X149860000Y-99060000D03*
X152400000Y-99060000D03*
X154940000Y-99060000D03*
%TD*%
D12*
%TO.C,J6*%
X162560000Y-60960000D03*
D13*
X162560000Y-63500000D03*
X162560000Y-66040000D03*
X162560000Y-68580000D03*
X162560000Y-71120000D03*
X162560000Y-73660000D03*
X162560000Y-76200000D03*
X162560000Y-78740000D03*
X162560000Y-81280000D03*
X162560000Y-83820000D03*
X162560000Y-86360000D03*
X162560000Y-88900000D03*
%TD*%
D12*
%TO.C,J3*%
X124460000Y-43180000D03*
D13*
X124460000Y-45720000D03*
X124460000Y-48260000D03*
X124460000Y-50800000D03*
X124460000Y-53340000D03*
X124460000Y-55880000D03*
X124460000Y-58420000D03*
X124460000Y-60960000D03*
%TD*%
M02*
